<?xml version="1.0" encoding="utf-8"?>
<!-- Generator: Adobe Illustrator 21.1.0, SVG Export Plug-In . SVG Version: 6.00 Build 0)  -->
<svg version="1.1" xmlns="http://www.w3.org/2000/svg" xmlns:xlink="http://www.w3.org/1999/xlink" x="0px" y="0px"
	 viewBox="0 0 512 512" style="enable-background:new 0 0 512 512;" xml:space="preserve">
<style type="text/css">
	.st0{fill:#376B44;}
	.st1{fill:#FFFFFF;}
</style>
<g id="Layer_1">
	<circle class="st0" cx="256" cy="256" r="256"/>
</g>
<g id="Layer_2">
	<g>
		<path class="st1" d="M130.5,160.2v194l143.5,22V135.8L130.5,160.2z M216,297.1l-13.7-30.7l-11.1,28l-17,0l19.5-40.4l-18.1-40.2h17
			l11.2,28.1l12.5-30.5l16.8-0.7l-20.5,43l20.9,44.2L216,297.1z"/>
		<path class="st1" d="M378.4,163.8H280v13.5h36.5v24.9H280v7.6h36.5v24.9H280v7.6h36.5v24.9H280v7.6h36.5v24.9H280v7.6h36.5v24.9
			H280v16.6h98.4c1.7,0,3.1-1.4,3.1-3.1V166.8C381.5,165.1,380.1,163.8,378.4,163.8z M365.1,332.2H324v-24.9h41.2V332.2z
			 M365.1,299.7H324v-24.9h41.2V299.7z M365.1,267.2H324v-24.9h41.2V267.2z M365.1,234.7H324v-24.9h41.2V234.7z M365.1,202.2H324
			v-24.9h41.2V202.2z"/>
	</g>
</g>
</svg>
