<svg id="Layer_4" data-name="Layer 4" xmlns="http://www.w3.org/2000/svg" viewBox="0 0 107.76 108.72"><title>edit</title><polygon points="102.67 108.72 0 108.72 0 6.06 84.17 6.06 81.17 9.06 3 9.06 3 105.72 99.67 105.72 99.67 25.56 102.67 22.56 102.67 108.72"/><path d="M117.68,20.13,44.55,94.22,31.12,80.78,104.21,6.72a3.16,3.16,0,0,1,4.49,0l9,9A3.16,3.16,0,0,1,117.68,20.13Z" transform="translate(-10.83 -5.78)"/><polygon points="33.72 88.44 16.49 95.17 13.55 92.23 20.29 75 33.72 88.44"/><polygon points="16.49 95.17 11.67 97.06 13.55 92.23 16.49 95.17"/></svg>