<?xml version="1.0" encoding="utf-8"?>
<!-- Generator: Adobe Illustrator 21.0.0, SVG Export Plug-In . SVG Version: 6.00 Build 0)  -->
<svg version="1.1" id="Layer_1" xmlns="http://www.w3.org/2000/svg" xmlns:xlink="http://www.w3.org/1999/xlink" x="0px" y="0px"
	 viewBox="0 0 77 77" style="enable-background:new 0 0 77 77;" xml:space="preserve">
<style type="text/css">
	.st0{fill:black;}
	.st1{fill:white;}
</style>
<radialGradient id="SVGID_1_" cx="38.3395" cy="55.4323" r="55.449" gradientUnits="userSpaceOnUse">
	<stop  offset="0" style="stop-color:#000000"/>
	<stop  offset="1" style="stop-color:#1D1D1D"/>
</radialGradient>
<circle class="st0" cx="38.5" cy="38.5" r="38.5"/>
<g>
	<g>
		<path class="st1" d="M57.3,16.4c0,6.3,0,12.6,0,18.8c0,0.3-0.1,0.4-0.3,0.5c-1.4,1.1-2.9,2.1-4.3,3.2c-0.9,0.7-1.9,1.4-2.8,2.1
			c0-3.4,0-6.7,0-10.1c-3.8,2.7-7.6,5.5-11.4,8.2c-3.8-2.7-7.5-5.4-11.3-8.2c0,3.4,0,6.7,0,10.1c-0.3-0.2-0.5-0.3-0.7-0.5
			c-1.1-0.8-2.3-1.7-3.5-2.6c-1.1-0.8-2.1-1.6-3.2-2.3c0,0-0.1-0.1-0.1-0.2c0-0.1,0-0.2,0-0.2c0-6.3,0-12.6,0-18.8h0
			c6.2,4.6,12.4,9.3,18.6,14c0.1,0,0.2-0.1,0.2-0.2c0.9-0.6,1.7-1.3,2.6-1.9c1.2-0.9,2.4-1.8,3.7-2.7c1.1-0.8,2.3-1.7,3.4-2.6
			c1.3-1,2.6-2,4-3c1.1-0.8,2.1-1.6,3.2-2.4C56.1,17.2,56.6,16.8,57.3,16.4C57.2,16.4,57.2,16.4,57.3,16.4z"/>
		<path class="st1" d="M49.9,48c0,3,0,6,0,9c0,0.1,0,0.2-0.1,0.3c-1,0.7-2.1,1.4-3.1,2.2c-1.3,1-2.7,1.9-4,2.9
			c-0.9,0.6-1.8,1.3-2.7,1.9c-0.5,0.3-0.9,0.6-1.3,1c-0.2,0.1-0.2,0.1-0.4,0c-1-0.8-2.1-1.5-3.1-2.2c-0.8-0.6-1.7-1.2-2.5-1.8
			c-1.4-1-2.7-1.9-4.1-2.9c-0.5-0.3-1-0.6-1.4-1C27,57.1,27,57,27,56.9c0-3,0-5.9,0-9c3.8,2.9,7.6,5.8,11.4,8.7
			C42.2,53.8,46,50.9,49.9,48z"/>
	</g>
</g>
</svg>
