<svg id="Layer_1" data-name="Layer 1" xmlns="http://www.w3.org/2000/svg" viewBox="0 0 124.34 58.59"><defs><style>.cls-1{fill:#fff;}</style></defs><title>eye</title><path class="cls-1" d="M63.44,93.79c-28.06,0-52-20.62-58.6-26.8,6.55-6.17,30.54-26.8,58.6-26.8S115.49,60.83,122,67C115.49,73.17,91.5,93.79,63.44,93.79Z" transform="translate(-1.27 -37.7)"/><path d="M63.44,42.7C88.29,42.7,110,59.57,118.33,67c-8.35,7.43-30,24.3-54.89,24.3S16.9,74.43,8.55,67c8.35-7.43,30-24.3,54.89-24.3m0-5C29.11,37.7,1.27,67,1.27,67S29.11,96.3,63.44,96.3,125.61,67,125.61,67,97.78,37.7,63.44,37.7Z" transform="translate(-1.27 -37.7)"/><path class="cls-1" d="M63.44,90.71A23.71,23.71,0,1,1,87.15,67,23.74,23.74,0,0,1,63.44,90.71Z" transform="translate(-1.27 -37.7)"/><path d="M63.44,45.79A21.21,21.21,0,1,1,42.23,67,21.21,21.21,0,0,1,63.44,45.79m0-5A26.21,26.21,0,1,0,89.65,67,26.24,26.24,0,0,0,63.44,40.79Z" transform="translate(-1.27 -37.7)"/><circle cx="62.17" cy="29.3" r="14.93"/></svg>