<?xml version="1.0" encoding="utf-8"?>
<!-- Generator: Adobe Illustrator 21.1.0, SVG Export Plug-In . SVG Version: 6.00 Build 0)  -->
<svg version="1.1" id="Layer_1" xmlns="http://www.w3.org/2000/svg" xmlns:xlink="http://www.w3.org/1999/xlink" x="0px" y="0px"
	 viewBox="0 0 512 512" style="enable-background:new 0 0 512 512;" xml:space="preserve">
<style type="text/css">
	.st0{fill:#00A89C;}
	.st1{fill:#FFFFFF;}
</style>
<g id="Layer_1_1_">
	<circle class="st0" cx="256" cy="256" r="256"/>
</g>
<g>
	<path class="st1" d="M378.3,343l-69.2-69.2c10.1-16.6,15.5-35.6,15.5-55.4c0-28.5-11.1-55.3-31.3-75.5s-47-31.3-75.5-31.3
		s-55.3,11.1-75.5,31.3c-20.2,20.2-31.3,47-31.3,75.5s11.1,55.3,31.3,75.5s47,31.3,75.5,31.3c20.4,0,39.8-5.7,56.6-16.2l69,69
		c4.8,4.8,11.1,7.2,17.4,7.2s12.6-2.4,17.4-7.2l0,0C388,368.3,388,352.7,378.3,343z M164.2,272.1c-29.6-29.6-29.6-77.7,0-107.3
		c14.8-14.8,34.3-22.3,53.7-22.3s38.8,7.4,53.7,22.3c29.6,29.6,29.6,77.7,0,107.3c-14.8,14.8-34.3,22.3-53.7,22.3
		S179.1,286.9,164.2,272.1z"/>
</g>
</svg>
