<svg id="Layer_3" data-name="Layer 3" xmlns="http://www.w3.org/2000/svg" viewBox="0 0 70.17 88.52"><defs><style>.cls-1{fill:none;stroke:#000;stroke-miterlimit:10;stroke-width:3px;}</style></defs><title>trash</title><path d="M32.23,51l11.25,64.08A2.32,2.32,0,0,0,45.76,117h39a2.33,2.33,0,0,0,2.29-1.92L98.34,51Zm19.48,58H51.5a2,2,0,0,1-2-1.79l-5-47a2,2,0,0,1,4-.42l5,47A2,2,0,0,1,51.71,109Zm8.83,0h0a2,2,0,0,1-2-2l-1-47a2,2,0,0,1,4-.08l1,47A2,2,0,0,1,60.54,109Zm12-2a2,2,0,0,1-2,2h0a2,2,0,0,1-2-2l1-47a2,2,0,0,1,4,.08Zm14-46.83-5,47a2,2,0,0,1-2,1.79h-.21a2,2,0,0,1-1.78-2.2l5-47a2,2,0,0,1,4,.42Z" transform="translate(-32.23 -28.48)"/><path d="M40,36.09H98.26a5.83,5.83,0,0,1,5.83,5.83v.33a0,0,0,0,1,0,0H34.21a0,0,0,0,1,0,0v-.33A5.83,5.83,0,0,1,40,36.09Z" transform="translate(-19.76 -45.02) rotate(14.98)"/><path class="cls-1" d="M76.91,39.1l.93-3.49a2.22,2.22,0,0,0-1.57-2.72L66.12,30.17a2.22,2.22,0,0,0-2.72,1.57l-.93,3.49" transform="translate(-32.23 -28.48)"/></svg>