<?xml version="1.0" encoding="utf-8"?>
<!-- Generator: Adobe Illustrator 21.1.0, SVG Export Plug-In . SVG Version: 6.00 Build 0)  -->
<svg version="1.1" id="Layer_1" xmlns="http://www.w3.org/2000/svg" xmlns:xlink="http://www.w3.org/1999/xlink" x="0px" y="0px"
	 viewBox="0 0 512 512" style="enable-background:new 0 0 512 512;" xml:space="preserve">
<style type="text/css">
	.st0{fill:#FF914C;}
	.st1{display:none;}
	.st2{display:inline;fill:#FFFFFF;}
	.st3{fill:#FFFFFF;}
</style>
<g id="Eye">
	<circle class="st0" cx="256" cy="256" r="256"/>
</g>
<g class="st1">
	<path class="st2" d="M346.6,422.4H165.4c-14.1,0-25.6-11.5-25.6-25.6V115.2c0-14.1,11.5-25.6,25.6-25.6h181.2
		c14.1,0,25.6,11.5,25.6,25.6v281.6C372.2,410.9,360.7,422.4,346.6,422.4z M168.4,393.8h175.2V118.2H168.4V393.8z"/>
</g>
<g>
	<g>
		<path class="st3" d="M127.6,297.1c-13.5,0-24.6-11-24.6-24.6v-118c0-13.5,11-24.6,24.6-24.6h156.3c13.5,0,24.6,11,24.6,24.6v118
			c0,13.5-11,24.6-24.6,24.6H127.6z"/>
		<path class="st0" d="M283.9,137.5c9.4,0,17,7.6,17,17v118c0,9.4-7.6,17-17,17H127.6c-9.4,0-17-7.6-17-17v-118c0-9.4,7.6-17,17-17
			H283.9 M283.9,122.3H127.6c-17.7,0-32.1,14.4-32.1,32.1v118c0,17.7,14.4,32.1,32.1,32.1h156.3c17.7,0,32.1-14.4,32.1-32.1v-118
			C316,136.8,301.6,122.3,283.9,122.3L283.9,122.3z"/>
	</g>
	<g>
		<path class="st3" d="M177.8,339.6c-13.5,0-24.6-11-24.6-24.6V197c0-13.5,11-24.6,24.6-24.6h156.3c13.5,0,24.6,11,24.6,24.6v118
			c0,13.5-11,24.6-24.6,24.6H177.8z"/>
		<path class="st0" d="M334.2,180c9.4,0,17,7.6,17,17v118c0,9.4-7.6,17-17,17H177.8c-9.4,0-17-7.6-17-17V197c0-9.4,7.6-17,17-17
			H334.2 M334.2,164.8H177.8c-17.7,0-32.1,14.4-32.1,32.1v118c0,17.7,14.4,32.1,32.1,32.1h156.3c17.7,0,32.1-14.4,32.1-32.1V197
			C366.3,179.3,351.9,164.8,334.2,164.8L334.2,164.8z"/>
	</g>
	<g>
		<path class="st3" d="M228.1,382.1c-13.5,0-24.6-11-24.6-24.6v-118c0-13.5,11-24.6,24.6-24.6h156.3c13.5,0,24.6,11,24.6,24.6v118
			c0,13.5-11,24.6-24.6,24.6H228.1z"/>
		<path class="st0" d="M384.4,222.5c9.4,0,17,7.6,17,17v118c0,9.4-7.6,17-17,17H228.1c-9.4,0-17-7.6-17-17v-118c0-9.4,7.6-17,17-17
			H384.4 M384.4,207.3H228.1c-17.7,0-32.1,14.4-32.1,32.1v118c0,17.7,14.4,32.1,32.1,32.1h156.3c17.7,0,32.1-14.4,32.1-32.1v-118
			C416.6,221.7,402.2,207.3,384.4,207.3L384.4,207.3z"/>
	</g>
</g>
</svg>
