<?xml version="1.0" encoding="utf-8"?>
<!-- Generator: Adobe Illustrator 21.1.0, SVG Export Plug-In . SVG Version: 6.00 Build 0)  -->
<svg version="1.1" id="Layer_1" xmlns="http://www.w3.org/2000/svg" xmlns:xlink="http://www.w3.org/1999/xlink" x="0px" y="0px"
	 viewBox="0 0 512 512" style="enable-background:new 0 0 512 512;" xml:space="preserve">
<style type="text/css">
	.st0{fill:#333333;}
	.st1{fill:#FFFFFF;}
	.st2{fill:none;stroke:#333333;stroke-width:15;stroke-miterlimit:10;}
</style>
<circle class="st0" cx="256" cy="256" r="256"/>
<g>
	<g>
		<path class="st1" d="M359,116.4h-206c-8.9,0-16.1,7.3-16.1,16.1v277.3c0,8.9,7.3,16.1,16.1,16.1h206.1c8.9,0,16.1-7.3,16.1-16.1
			V132.6C375.1,123.7,367.9,116.4,359,116.4z"/>
	</g>
	<g>
		<line class="st2" x1="163.9" y1="191.1" x2="348" y2="191.1"/>
		<line class="st2" x1="163.9" y1="231.2" x2="348" y2="231.2"/>
		<line class="st2" x1="163.9" y1="271.1" x2="348" y2="271.1"/>
		<line class="st2" x1="163.9" y1="311.2" x2="348" y2="311.2"/>
		<line class="st2" x1="163.9" y1="351.1" x2="348" y2="351.1"/>
	</g>
	<g>
		<path class="st1" d="M210.6,143.1c-9,0-16.2-7.3-16.2-16.2v-22.2c0-9,7.3-16.2,16.2-16.2h90.8c9,0,16.2,7.3,16.2,16.2v22.2
			c0,9-7.3,16.2-16.2,16.2H210.6z"/>
		<path class="st0" d="M301.3,94.4c5.5,0,10.1,4.5,10.1,10.1v22.2c0,5.5-4.5,10.1-10.1,10.1h-90.8c-5.5,0-10.1-4.5-10.1-10.1v-22.2
			c0-5.5,4.5-10.1,10.1-10.1H301.3 M301.3,82.1h-90.8c-12.3,0-22.4,10-22.4,22.4v22.2c0,12.3,10,22.4,22.4,22.4h90.8
			c12.3,0,22.4-10,22.4-22.4v-22.2C323.7,92.2,313.7,82.1,301.3,82.1L301.3,82.1z"/>
	</g>
</g>
</svg>
