<?xml version="1.0" encoding="utf-8"?>
<!-- Generator: Adobe Illustrator 21.0.2, SVG Export Plug-In . SVG Version: 6.00 Build 0)  -->
<svg version="1.1" id="Layer_1" xmlns="http://www.w3.org/2000/svg" xmlns:xlink="http://www.w3.org/1999/xlink" x="0px" y="0px"
	 viewBox="0 0 512 512" style="enable-background:new 0 0 512 512;" xml:space="preserve">
<style type="text/css">
	.st0{fill:#F8BC32;}
	.st1{fill:#FFFFFF;}
</style>
<circle class="st0" cx="256" cy="256" r="256"/>
<g>
	<g>
		<path class="st1" d="M195.6,201.2v92.9c0,0.7-0.6,1.3-1.3,1.3h-48.6v-53.2c0-17.6-13.1-32.2-29.9-34.6v-30.7
			c0-0.7,0.6-1.3,1.3-1.3h53C184.1,175.7,195.6,187.1,195.6,201.2z"/>
		<path class="st1" d="M136.3,242.2v92.9c0,0.7-0.6,1.3-1.3,1.3H57.7c-0.7,0-1.3-0.6-1.3-1.3V217.9c0-0.7,0.6-1.3,1.3-1.3h53
			c1.7,0,3.4,0.2,5,0.5C127.4,219.4,136.3,229.8,136.3,242.2z"/>
	</g>
	<g>
		<g>
			<path class="st1" d="M340.1,196.1h26.4l60.8,80.1v-80.1h28.2v130h-24.4L368,243.5v82.6h-28.2v-130H340.1z"/>
		</g>
	</g>
	<polygon class="st1" points="305,261.1 234.8,220.6 234.8,301.6 	"/>
</g>
</svg>
