<?xml version="1.0" encoding="utf-8"?>
<!-- Generator: Adobe Illustrator 21.1.0, SVG Export Plug-In . SVG Version: 6.00 Build 0)  -->
<svg version="1.1" id="Layer_1" xmlns="http://www.w3.org/2000/svg" xmlns:xlink="http://www.w3.org/1999/xlink" x="0px" y="0px"
	 viewBox="0 0 512 512" style="enable-background:new 0 0 512 512;" xml:space="preserve">
<style type="text/css">
	.st0{fill:#F8BC32;}
	.st1{fill:#333333;}
	.st2{fill:#FFFFFF;}
	.st3{fill:none;stroke:#333333;stroke-width:14;stroke-miterlimit:10;}
</style>
<circle class="st0" cx="256" cy="256" r="256"/>
<circle class="st1" cx="256" cy="256" r="256"/>
<path class="st2" d="M385,154.3v172.3c0,1.3-1.1,2.4-2.4,2.4h-90.1v-98.7c0-32.6-24.2-59.6-55.5-64.2v-56.8c0-1.3,1.1-2.4,2.4-2.4
	h98.3C363.8,107,385,128.2,385,154.3z"/>
<line class="st3" x1="253.8" y1="154.5" x2="368.2" y2="154.5"/>
<line class="st3" x1="253.8" y1="183.7" x2="368.2" y2="183.7"/>
<line class="st3" x1="253.8" y1="212.9" x2="368.2" y2="212.9"/>
<line class="st3" x1="253.8" y1="242.1" x2="368.2" y2="242.1"/>
<line class="st3" x1="253.8" y1="271.3" x2="368.2" y2="271.3"/>
<path class="st2" d="M275,230.3v172.3c0,1.3-1.1,2.4-2.4,2.4H129.4c-1.3,0-2.4-1.1-2.4-2.4V185.4c0-1.3,1.1-2.4,2.4-2.4h98.3
	c3.2,0,6.3,0.3,9.3,0.9C258.7,188.2,275,207.4,275,230.3z"/>
<line class="st3" x1="141.7" y1="231.8" x2="256" y2="231.8"/>
<line class="st3" x1="141.7" y1="261" x2="256" y2="261"/>
<line class="st3" x1="141.7" y1="290.2" x2="256" y2="290.2"/>
<line class="st3" x1="141.7" y1="319.4" x2="256" y2="319.4"/>
<line class="st3" x1="141.7" y1="348.6" x2="256" y2="348.6"/>
</svg>
