<?xml version="1.0" encoding="utf-8"?>
<!-- Generator: Adobe Illustrator 21.1.0, SVG Export Plug-In . SVG Version: 6.00 Build 0)  -->
<svg version="1.1" id="Layer_1" xmlns="http://www.w3.org/2000/svg" xmlns:xlink="http://www.w3.org/1999/xlink" x="0px" y="0px"
	 viewBox="0 0 512 512" style="enable-background:new 0 0 512 512;" xml:space="preserve">
<style type="text/css">
	.st0{fill:#EA4535;}
	.st1{fill:#FFFFFF;}
	.st2{fill:none;stroke:#FFFFFF;stroke-width:5;stroke-miterlimit:10;}
</style>
<circle class="st0" cx="256" cy="256" r="256"/>
<path class="st1" d="M136.9,167.3v52.9c0,0.4-0.3,0.7-0.7,0.7h-44c-0.4,0-0.7-0.3-0.7-0.7v-66.7c0-0.4,0.3-0.7,0.7-0.7h30.2
	c1,0,1.9,0.1,2.9,0.3C131.9,154.4,136.9,160.3,136.9,167.3z"/>
<path class="st1" d="M200.3,167.3v52.9c0,0.4-0.3,0.7-0.7,0.7h-44c-0.4,0-0.7-0.3-0.7-0.7v-66.7c0-0.4,0.3-0.7,0.7-0.7h30.2
	c1,0,1.9,0.1,2.9,0.3C195.3,154.4,200.3,160.3,200.3,167.3z"/>
<path class="st1" d="M263.6,167.3v52.9c0,0.4-0.3,0.7-0.7,0.7h-44c-0.4,0-0.7-0.3-0.7-0.7v-66.7c0-0.4,0.3-0.7,0.7-0.7h30.2
	c1,0,1.9,0.1,2.9,0.3C258.6,154.4,263.6,160.3,263.6,167.3z"/>
<g>
	<g>
		<path class="st2" d="M291.5,186.9c15.9,0,28.8,12.9,28.8,28.8v3"/>
		<g>
			<polygon class="st1" points="309.2,215.5 320.2,234.5 331.2,215.5 			"/>
		</g>
	</g>
</g>
<path class="st1" d="M246.6,269.8l14,130.8c0.9,6.6,6.4,11.5,13.1,11.5h93.7c6.6,0,12.3-4.9,13.1-11.5l14-130.8H246.6z"/>
<g>
	<path class="st1" d="M430.7,249.5c1.7-4.4,1.7-9.5-0.4-14.1l-60.1-134.9c-2.1-4.6-5.8-8-10.3-9.7c-4.4-1.7-9.5-1.7-17.4,1.8
		l75.2,168.7C425.6,257.7,429,254,430.7,249.5z"/>
	<path class="st1" d="M418.7,211.4l4.5-2c8.5-3.8,12.3-13.8,8.5-22.3l-20.7-46.4c-3.8-8.5-13.8-12.3-22.3-8.5l-4.5,2 M415.4,203.9
		l-27.7-62.2l4.5-2c4.4-2,9.5,0,11.4,4.4l20.7,46.4c2,4.4,0,9.5-4.4,11.4L415.4,203.9z"/>
</g>
</svg>
