<?xml version="1.0" encoding="utf-8"?>
<!-- Generator: Adobe Illustrator 21.0.2, SVG Export Plug-In . SVG Version: 6.00 Build 0)  -->
<svg version="1.1" id="Layer_1" xmlns="http://www.w3.org/2000/svg" xmlns:xlink="http://www.w3.org/1999/xlink" x="0px" y="0px"
	 viewBox="0 0 512 512" style="enable-background:new 0 0 512 512;" xml:space="preserve">
<style type="text/css">
	.st0{fill:#333333;}
	.st1{fill:#FFFFFF;}
</style>
<g>
	<path class="st0" d="M256,0C114.6,0,0,114.6,0,256s114.6,256,256,256s256-114.6,256-256S397.4,0,256,0L256,0z"/>
</g>
<g>
	<path class="st1" d="M256,407.5c-11.7,0-22-4-30.7-11.9c-8.8-7.9-13.2-18.3-13.2-31.2c0-12.9,4.4-23.3,13.2-31.2
		c8.8-7.9,19-11.9,30.7-11.9c5.6,0,11,1,16.5,3.1c5.4,2.1,10.1,5,14.1,8.8c4,3.8,7.2,8.3,9.7,13.6c2.5,5.3,3.7,11.1,3.7,17.6
		c0,6.4-1.2,12.3-3.7,17.6c-2.5,5.3-5.7,9.8-9.7,13.6c-4,3.8-8.6,6.7-14.1,8.8C267,406.5,261.6,407.5,256,407.5z M214.7,104.5h82.6
		l-8.8,197.6h-65L214.7,104.5z"/>
</g>
</svg>
