<?xml version="1.0" encoding="utf-8"?>
<!-- Generator: Adobe Illustrator 21.0.2, SVG Export Plug-In . SVG Version: 6.00 Build 0)  -->
<svg version="1.1" id="Layer_1" xmlns="http://www.w3.org/2000/svg" xmlns:xlink="http://www.w3.org/1999/xlink" x="0px" y="0px"
	 viewBox="0 0 512 512" style="enable-background:new 0 0 512 512;" xml:space="preserve">
<style type="text/css">
	.st0{fill:#FFFFFF;}
	.st1{fill:#0045B2;}
</style>
<g id="New_NJump">
	<g>
		<path class="st0" d="M256,487c-61.7,0-119.7-24-163.3-67.7C49,375.7,25,317.7,25,256c0-61.7,24-119.7,67.7-163.3
			C136.3,49,194.3,25,256,25s119.7,24,163.3,67.7C463,136.3,487,194.3,487,256c0,61.7-24,119.7-67.7,163.3
			C375.7,463,317.7,487,256,487z"/>
		<path class="st1" d="M256,50c55,0,106.8,21.4,145.7,60.3S462,201,462,256s-21.4,106.8-60.3,145.7C362.8,440.6,311,462,256,462
			s-106.8-21.4-145.7-60.3S50,311,50,256s21.4-106.8,60.3-145.7S201,50,256,50 M256,0C114.6,0,0,114.6,0,256
			c0,141.4,114.6,256,256,256c141.4,0,256-114.6,256-256C512,114.6,397.4,0,256,0L256,0z"/>
	</g>
</g>
<polygon class="st1" points="256,167.4 114.3,300.4 397.7,300.4 "/>
</svg>
