<?xml version="1.0" encoding="utf-8"?>
<!-- Generator: Adobe Illustrator 21.0.2, SVG Export Plug-In . SVG Version: 6.00 Build 0)  -->
<svg version="1.1" id="Layer_1" xmlns="http://www.w3.org/2000/svg" xmlns:xlink="http://www.w3.org/1999/xlink" x="0px" y="0px"
	 viewBox="0 0 512 512" style="enable-background:new 0 0 512 512;" xml:space="preserve">
<style type="text/css">
	.st0{fill:#FFFFFF;}
	.st1{fill:#333333;}
	.st2{display:none;fill:#7C7C7C;}
	.st3{display:none;}
	.st4{display:inline;fill:#FFFFFF;}
</style>
<g>
	<path class="st0" d="M256,502c-65.7,0-127.5-25.6-173.9-72.1S10,321.7,10,256S35.6,128.5,82.1,82.1S190.3,10,256,10
		s127.5,25.6,173.9,72.1S502,190.3,502,256s-25.6,127.5-72.1,173.9S321.7,502,256,502z"/>
	<path class="st1" d="M256,20c31.9,0,62.8,6.2,91.9,18.5c28.1,11.9,53.3,28.9,75,50.6c21.7,21.7,38.7,46.9,50.6,75
		c12.3,29.1,18.5,60,18.5,91.9s-6.2,62.8-18.5,91.9c-11.9,28.1-28.9,53.3-50.6,75c-21.7,21.7-46.9,38.7-75,50.6
		c-29.1,12.3-60,18.5-91.9,18.5s-62.8-6.2-91.9-18.5c-28.1-11.9-53.3-28.9-75-50.6c-21.7-21.7-38.7-46.9-50.6-75
		C26.2,318.8,20,287.9,20,256s6.2-62.8,18.5-91.9c11.9-28.1,28.9-53.3,50.6-75c21.7-21.7,46.9-38.7,75-50.6
		C193.2,26.2,224.1,20,256,20 M256,0C114.6,0,0,114.6,0,256s114.6,256,256,256s256-114.6,256-256S397.4,0,256,0L256,0z"/>
</g>
<circle class="st2" cx="256" cy="256" r="256"/>
<g>
	<polygon class="st1" points="115.6,303.6 396.4,303.6 256,164.4 	"/>
</g>
<g class="st3">
	<polygon class="st4" points="256,162 115.6,301.2 396.4,301.2 	"/>
</g>
</svg>
