<?xml version="1.0" encoding="utf-8"?>
<!-- Generator: Adobe Illustrator 21.0.2, SVG Export Plug-In . SVG Version: 6.00 Build 0)  -->
<svg version="1.1" id="Layer_1" xmlns="http://www.w3.org/2000/svg" xmlns:xlink="http://www.w3.org/1999/xlink" x="0px" y="0px"
	 viewBox="0 0 512 512" style="enable-background:new 0 0 512 512;" xml:space="preserve">
<style type="text/css">
	.st0{fill:#333333;}
	.st1{display:none;fill:#7C7C7C;}
	.st2{fill:#FFFFFF;}
	.st3{display:none;}
	.st4{display:inline;fill:#FFFFFF;}
</style>
<circle class="st0" cx="256" cy="256" r="256"/>
<circle class="st1" cx="256" cy="256" r="256"/>
<g>
	<polygon class="st2" points="256,76.5 405.2,230 106.8,230 	"/>
	<path class="st0" d="M391.2,224.1H120.8L256,84.9L391.2,224.1 M419.1,235.9l-19.6-20L264.3,76.7l-8.4-8.7l-8.4,8.7L112.3,215.9
		l-19.4,20h27.9h270.4H419.1L419.1,235.9z"/>
</g>
<g>
	<polygon class="st2" points="256,153 405.2,306.5 106.8,306.5 	"/>
	<path class="st0" d="M391.2,300.6H120.8L256,161.4L391.2,300.6 M419.1,312.4l-19.6-20L264.3,153.2l-8.4-8.7l-8.4,8.7L112.3,292.4
		l-19.4,20h27.9h270.4H419.1L419.1,312.4z"/>
</g>
<g>
	<polygon class="st2" points="256,229.5 405.2,383 106.8,383 	"/>
	<path class="st0" d="M391.2,377.1H120.8L256,237.9L391.2,377.1 M419.1,388.9l-19.6-20L264.3,229.7l-8.4-8.7l-8.4,8.7L112.3,368.9
		l-19.4,20h27.9h270.4H419.1L419.1,388.9z"/>
</g>
<g class="st3">
	<polygon class="st4" points="256,162 115.6,301.2 396.4,301.2 	"/>
</g>
</svg>
