<?xml version="1.0" encoding="utf-8"?>
<!-- Generator: Adobe Illustrator 21.0.2, SVG Export Plug-In . SVG Version: 6.00 Build 0)  -->
<svg version="1.1" id="Layer_1" xmlns="http://www.w3.org/2000/svg" xmlns:xlink="http://www.w3.org/1999/xlink" x="0px" y="0px"
	 viewBox="0 0 512 512" style="enable-background:new 0 0 512 512;" xml:space="preserve">
<style type="text/css">
	.st0{fill:#2C06EB;}
	.st1{fill:#FFFFFF;}
</style>
<g id="New_NJump">
	<circle class="st0" cx="256" cy="256" r="256"/>
</g>
<g id="qhWFj1.tif">
	<g>
		<path class="st1" d="M255.8,463.4C141,462.9,48.1,369.7,48.7,255.8c0.6-115.1,93.6-207.7,208-207.1
			c114.4,0.6,207.4,94,206.7,207.6C462.6,371.2,369.8,463.9,255.8,463.4z M255.6,428.8c94.8,0.6,172.7-76.5,173.2-171.5
			C429.4,161,352.4,83.5,255.9,83C161.6,82.6,83.7,160,83,254.7C82.3,350.5,159.4,428.2,255.6,428.8z"/>
		<path class="st1" d="M287.7,340.5c1.9,1.2,3.9,2.4,6.1,3.7c-8.4,14.4-17.5,27.7-30.2,38.2c-9,7.4-19,12.6-30.9,13
			c-20.9,0.8-33.2-13.1-28.4-33.4c4-17.2,9.4-34.1,14.2-51.1c5.9-20.9,11.9-41.8,17.8-62.7c0.6-2,0.9-4.1,1.2-6.2
			c1.4-8.9-3.5-14.8-12.6-15.3c-2.5-0.1-5,0-7.5,0c0.3-5.4,2.3-7.8,7.7-8.6c19.3-2.7,38.5-6.3,57.7-9.2c4.5-0.7,9.2-0.1,14.3-0.1
			c-3.5,12.1-6.9,24-10.3,35.9c-10.5,36.6-21,73.2-31.4,109.7c-0.7,2.4-1.6,5-1.3,7.5c0.2,2.3,1.3,5.2,3,6.3c1.5,1,4.9,0.7,6.6-0.4
			c3.1-1.9,6-4.6,8.3-7.4C277.4,354.1,282.4,347.4,287.7,340.5z"/>
		<path class="st1" d="M285.3,118.5c16.3,0,28.9,12.6,28.8,28.7c-0.1,15.8-12.8,28.5-28.6,28.6c-16,0.1-28.7-12.7-28.7-28.9
			C256.8,130.9,269.2,118.6,285.3,118.5z"/>
	</g>
</g>
</svg>
