<?xml version="1.0" encoding="utf-8"?>
<!-- Generator: Adobe Illustrator 21.0.2, SVG Export Plug-In . SVG Version: 6.00 Build 0)  -->
<svg version="1.1" id="Layer_1" xmlns="http://www.w3.org/2000/svg" xmlns:xlink="http://www.w3.org/1999/xlink" x="0px" y="0px"
	 viewBox="0 0 512 512" style="enable-background:new 0 0 512 512;" xml:space="preserve">
<style type="text/css">
	.st0{fill:#00B8BF;}
	.st1{fill:#231F20;}
	.st2{fill:none;}
</style>
<g id="Layer_20">
	<circle class="st0" cx="256" cy="256" r="256"/>
	<g>
		<g>
			<path class="st1" d="M129.2,256c0,30,10.8,58.9,29.8,81.6l14.7-24.1l43.1,78.8l-89.7-2.1l15.7-25.8c-27.8-29-43.5-68-43.5-108.4
				c0-86.4,70.3-156.8,156.8-156.8v30C186.1,129.2,129.2,186.1,129.2,256z"/>
		</g>
	</g>
	<g>
		<path class="st2" d="M309.5,124.7"/>
	</g>
	<g>
		<g>
			<g>
				<path class="st1" d="M412.8,256c0,86.4-70.4,156.8-156.8,156.8v-30c69.9,0,126.8-56.9,126.8-126.8c0-25.4-7.6-50.1-21.7-70.9
					l-17.2,22.5l-34.4-82.9l89,11.6l-18.3,23.9C401.3,187.6,412.8,221.1,412.8,256z"/>
			</g>
		</g>
	</g>
</g>
</svg>
