<?xml version="1.0" encoding="utf-8"?>
<!-- Generator: Adobe Illustrator 21.0.2, SVG Export Plug-In . SVG Version: 6.00 Build 0)  -->
<svg version="1.1" id="Layer_1" xmlns="http://www.w3.org/2000/svg" xmlns:xlink="http://www.w3.org/1999/xlink" x="0px" y="0px"
	 viewBox="0 0 512 512" style="enable-background:new 0 0 512 512;" xml:space="preserve">
<style type="text/css">
	.st0{fill:#333333;}
	.st1{fill:#FFFFFF;}
</style>
<g id="New_NJump">
	<circle class="st0" cx="256" cy="256" r="256"/>
</g>
<g>
	<g>
		<path class="st1" d="M332.4,227.6v118.6c0,16.9-13.7,30.7-30.7,30.7H167.3c-16.9,0-30.7-13.7-30.7-30.7V211.6
			c0-16.9,13.7-30.7,30.7-30.7h115.6l-21.8,22.3h-93.9c-4.6,0-8.4,3.8-8.4,8.4v134.5c0,4.6,3.8,8.4,8.4,8.4h134.5
			c4.6,0,8.4-3.8,8.4-8.4v-95.9L332.4,227.6z"/>
	</g>
	<g>
		<polygon class="st1" points="375.4,135.2 359.3,197.6 344.3,182.8 329.3,198.1 310.2,217.6 242.5,286.7 226.6,271.1 293.1,203.2 
			312.9,183.1 328.4,167.3 313.4,152.5 		"/>
	</g>
</g>
</svg>
