<?xml version="1.0" encoding="utf-8"?>
<!-- Generator: Adobe Illustrator 21.0.2, SVG Export Plug-In . SVG Version: 6.00 Build 0)  -->
<svg version="1.1" id="Layer_1" xmlns="http://www.w3.org/2000/svg" xmlns:xlink="http://www.w3.org/1999/xlink" x="0px" y="0px"
	 viewBox="0 0 512 512" style="enable-background:new 0 0 512 512;" xml:space="preserve">
<style type="text/css">
	.st0{fill:#333333;}
</style>
<g>
	<g>
		<path class="st0" d="M369.7,213.7v176.4c0,25.1-20.4,45.6-45.6,45.6H124c-25.1,0-45.6-20.4-45.6-45.6V190
			c0-25.1,20.4-45.6,45.6-45.6h172l-32.4,33.1H124c-6.9,0-12.5,5.6-12.5,12.5v200.1c0,6.9,5.6,12.5,12.5,12.5h200.1
			c6.9,0,12.5-5.6,12.5-12.5V247.5L369.7,213.7z"/>
	</g>
	<g>
		<polygon class="st0" points="433.6,76.3 409.7,169.1 387.4,147.1 365,169.9 336.6,198.9 235.9,301.6 212.2,278.5 311.2,177.5 
			340.6,147.5 363.7,124 341.4,102 		"/>
	</g>
</g>
</svg>
