<?xml version="1.0" encoding="utf-8"?>
<!-- Generator: Adobe Illustrator 21.0.2, SVG Export Plug-In . SVG Version: 6.00 Build 0)  -->
<svg version="1.1" id="Layer_1" xmlns="http://www.w3.org/2000/svg" xmlns:xlink="http://www.w3.org/1999/xlink" x="0px" y="0px"
	 viewBox="0 0 512 512" style="enable-background:new 0 0 512 512;" xml:space="preserve">
<style type="text/css">
	.st0{fill:#333333;}
	.st1{fill:#FFFFFF;}
</style>
<g id="New_NJump">
	<circle class="st0" cx="256" cy="256" r="256"/>
</g>
<g>
	<g>
		<path class="st1" d="M346.5,222.3v140.4c0,20-16.2,36.3-36.3,36.3H151c-20,0-36.3-16.2-36.3-36.3V203.5c0-20,16.2-36.3,36.3-36.3
			h136.9L262,193.5H151c-5.5,0-9.9,4.5-9.9,9.9v159.2c0,5.5,4.5,9.9,9.9,9.9h159.2c5.5,0,9.9-4.5,9.9-9.9V249.2L346.5,222.3z"/>
	</g>
	<g>
		<polygon class="st1" points="397.3,113 378.3,186.8 360.6,169.3 342.7,187.5 320.1,210.6 240,292.3 221.1,273.9 299.9,193.5 
			323.3,169.7 341.7,151 324,133.5 		"/>
	</g>
</g>
</svg>
