<?xml version="1.0" encoding="utf-8"?>
<!-- Generator: Adobe Illustrator 21.1.0, SVG Export Plug-In . SVG Version: 6.00 Build 0)  -->
<svg version="1.1" id="Layer_1" xmlns="http://www.w3.org/2000/svg" xmlns:xlink="http://www.w3.org/1999/xlink" x="0px" y="0px"
	 viewBox="0 0 512 512" style="enable-background:new 0 0 512 512;" xml:space="preserve">
<style type="text/css">
	.st0{fill:#999999;}
</style>
<g>
	<path class="st0" d="M256,25c31.2,0,61.4,6.1,89.9,18.1c27.5,11.6,52.2,28.3,73.4,49.5c21.2,21.2,37.9,45.9,49.5,73.4
		c12,28.5,18.1,58.7,18.1,89.9s-6.1,61.4-18.1,89.9c-11.6,27.5-28.3,52.2-49.5,73.4c-21.2,21.2-45.9,37.9-73.4,49.5
		c-28.5,12-58.7,18.1-89.9,18.1s-61.4-6.1-89.9-18.1c-27.5-11.6-52.2-28.3-73.4-49.5c-21.2-21.2-37.9-45.9-49.5-73.4
		C31.1,317.4,25,287.2,25,256s6.1-61.4,18.1-89.9c11.6-27.5,28.3-52.2,49.5-73.4c21.2-21.2,45.9-37.9,73.4-49.5
		C194.6,31.1,224.8,25,256,25 M256,0C114.6,0,0,114.6,0,256s114.6,256,256,256s256-114.6,256-256S397.4,0,256,0L256,0z"/>
</g>
<g>
	<path class="st0" d="M236,275.3h-67.5v-39H236v-66.8h40v66.8h67.5v39H276v67.1h-40V275.3z"/>
</g>
</svg>
