<?xml version="1.0" encoding="utf-8"?>
<!-- Generator: Adobe Illustrator 21.0.2, SVG Export Plug-In . SVG Version: 6.00 Build 0)  -->
<svg version="1.1" id="Layer_1" xmlns="http://www.w3.org/2000/svg" xmlns:xlink="http://www.w3.org/1999/xlink" x="0px" y="0px"
	 viewBox="0 0 512 512" style="enable-background:new 0 0 512 512;" xml:space="preserve">
<style type="text/css">
	.st0{fill:#333333;}
</style>
<g id="Layer_17">
	<g id="ASXF9M.tif">
		<g>
			<path class="st0" d="M224.9,288.8c-5.2-4.3-9.5-7.7-13.7-11.2c-15.7-13-31-26.7-47.3-39c-16.7-12.7-36.2-9.5-47.4,6.3
				c-12.2,17.2-9.5,37,7.3,51.2c26,22,52.2,43.7,78.2,65.7c20.9,17.7,39.9,16,57.5-4.9c42.6-50.5,85.3-100.8,127.8-151.4
				c4.1-4.9,8.1-10.6,10.4-16.6c6.2-16.3-0.4-33.8-15.3-43.1c-14.4-8.9-31.6-5.6-43.9,8.9c-22,25.9-43.8,52-65.8,78
				C257.1,251.3,241.3,269.6,224.9,288.8z"/>
		</g>
	</g>
</g>
</svg>
