<?xml version="1.0" encoding="utf-8"?>
<!-- Generator: Adobe Illustrator 21.0.2, SVG Export Plug-In . SVG Version: 6.00 Build 0)  -->
<svg version="1.1" id="Layer_1" xmlns="http://www.w3.org/2000/svg" xmlns:xlink="http://www.w3.org/1999/xlink" x="0px" y="0px"
	 viewBox="0 0 512 512" style="enable-background:new 0 0 512 512;" xml:space="preserve">
<style type="text/css">
	.st0{display:none;}
	.st1{display:inline;fill:#333333;}
	.st2{display:inline;}
	.st3{fill:#313131;}
	.st4{fill:#FFFFFF;}
	.st5{fill:#333333;}
	.st6{fill:#F8BC32;}
	.st7{display:inline;fill:#F8BC32;}
</style>
<g id="Layer_14" class="st0">
	<circle class="st1" cx="256" cy="256" r="256"/>
	<g class="st2">
		<polygon class="st3" points="200.6,285.7 145.6,232.1 221.7,221 255.8,152 289.8,221 365.9,232.1 310.8,285.7 323.8,361.5 
			255.8,325.7 187.7,361.5 		"/>
		<path class="st4" d="M255.8,136.3l-38.6,78.3l-86.4,12.6l62.5,61l-14.7,86l77.2-40.6l77.2,40.6l-14.7-86l62.5-61l-86.4-12.6
			L255.8,136.3L255.8,136.3z"/>
	</g>
</g>
<g id="Layer_13">
	<circle class="st5" cx="256" cy="256" r="256"/>
	<g>
		<polygon class="st6" points="255.8,130.2 294.4,212.5 380.8,225.7 318.3,289.8 333,380.2 255.8,337.6 178.5,380.2 193.2,289.8 
			130.8,225.7 217.1,212.5 		"/>
	</g>
</g>
<g id="Clone" class="st0">
	<circle class="st7" cx="256" cy="256" r="256"/>
	<g class="st2">
		<path class="st4" d="M385,154.3v172.3c0,1.3-1.1,2.4-2.4,2.4h-90.1v-98.7c0-32.6-24.2-59.6-55.5-64.2v-56.8c0-1.3,1.1-2.4,2.4-2.4
			h98.3C363.8,107,385,128.2,385,154.3z"/>
		<path class="st4" d="M275,230.3v172.3c0,1.3-1.1,2.4-2.4,2.4H129.4c-1.3,0-2.4-1.1-2.4-2.4V185.4c0-1.3,1.1-2.4,2.4-2.4h98.3
			c3.2,0,6.3,0.3,9.3,0.9C258.7,188.2,275,207.4,275,230.3z"/>
	</g>
</g>
<g id="Guides" class="st0">
</g>
</svg>
