<?xml version="1.0" encoding="utf-8"?>
<!-- Generator: Adobe Illustrator 21.0.2, SVG Export Plug-In . SVG Version: 6.00 Build 0)  -->
<svg version="1.1" id="Layer_1" xmlns="http://www.w3.org/2000/svg" xmlns:xlink="http://www.w3.org/1999/xlink" x="0px" y="0px"
	 viewBox="0 0 512 512" style="enable-background:new 0 0 512 512;" xml:space="preserve">
<style type="text/css">
	.st0{display:none;}
	.st1{display:inline;fill:#4FA954;}
	.st2{display:inline;}
	.st3{fill:#FFFFFF;}
	.st4{fill:#333333;}
	.st5{fill:#313131;}
	.st6{display:inline;fill:#333333;}
	.st7{display:inline;fill:none;stroke:#333333;stroke-width:20;stroke-miterlimit:10;}
	.st8{display:inline;fill:#FFFFFF;}
	.st9{display:inline;fill:#F8BC32;}
	.st10{display:inline;fill:#4285F4;}
	.st11{display:inline;fill:#EA4535;}
	.st12{display:inline;fill:#141414;}
	.st13{display:inline;fill:#B2B2B2;}
	.st14{fill:#777777;}
	.st15{display:inline;fill:none;stroke:#000000;stroke-width:5;stroke-linecap:round;stroke-linejoin:round;stroke-miterlimit:10;}
</style>
<g id="New_NJump" class="st0">
	<circle class="st1" cx="256" cy="256" r="256"/>
	<g class="st2">
		<path class="st3" d="M236,275.3h-67.5v-39H236v-66.8h40v66.8h67.5v39H276v67.1h-40V275.3z"/>
	</g>
</g>
<g id="Layer_14">
	<circle class="st4" cx="256" cy="256" r="256"/>
	<g>
		<polygon class="st5" points="200.6,285.7 145.6,232.1 221.7,221 255.8,152 289.8,221 365.9,232.1 310.8,285.7 323.8,361.5 
			255.8,325.7 187.7,361.5 		"/>
		<path class="st3" d="M255.8,136.3l-38.6,78.3l-86.4,12.6l62.5,61l-14.7,86l77.2-40.6l77.2,40.6l-14.7-86l62.5-61l-86.4-12.6
			L255.8,136.3L255.8,136.3z"/>
	</g>
</g>
<g id="Layer_13" class="st0">
	<circle class="st6" cx="256" cy="256" r="256"/>
	<g class="st2">
		<polygon class="st3" points="255.8,130.2 294.4,212.5 380.8,225.7 318.3,289.8 333,380.2 255.8,337.6 178.5,380.2 193.2,289.8 
			130.8,225.7 217.1,212.5 		"/>
	</g>
</g>
<g id="Eye" class="st0">
	<path class="st7" d="M438,256c0,0-81.5,90-182,90S74,256,74,256s81.5-90,182-90S438,256,438,256z"/>
	<polygon class="st8" points="272,266.4 256.7,245.6 240,266.4 	"/>
	<g class="st2">
		<path class="st3" d="M256,200c30.9,0,56,25.1,56,56s-25.1,56-56,56s-56-25.1-56-56S225.1,200,256,200 M256,191
			c-35.9,0-65,29.1-65,65s29.1,65,65,65s65-29.1,65-65S291.9,191,256,191L256,191z"/>
	</g>
</g>
<g id="Clone" class="st0">
	<circle class="st9" cx="256" cy="256" r="256"/>
	<g class="st2">
		<path class="st3" d="M385,154.3v172.3c0,1.3-1.1,2.4-2.4,2.4h-90.1v-98.7c0-32.6-24.2-59.6-55.5-64.2v-56.8c0-1.3,1.1-2.4,2.4-2.4
			h98.3C363.8,107,385,128.2,385,154.3z"/>
		<path class="st3" d="M275,230.3v172.3c0,1.3-1.1,2.4-2.4,2.4H129.4c-1.3,0-2.4-1.1-2.4-2.4V185.4c0-1.3,1.1-2.4,2.4-2.4h98.3
			c3.2,0,6.3,0.3,9.3,0.9C258.7,188.2,275,207.4,275,230.3z"/>
	</g>
</g>
<g id="Edit" class="st0">
	<circle class="st10" cx="257" cy="256" r="256"/>
	<g class="st2">
		<path class="st3" d="M302.5,156.4L158.9,299.9l52.6,52.6L355.1,209L302.5,156.4z M295.8,234.3l-15.2-2.9l-2.9-15.2l6.8-6.8
			L287,225l15.5,2.6L295.8,234.3z M315.8,223.8l-9.4-1.2l7.6-7.6l-14.6-2.3l-2.1-14.4l-7.6,7.6l-1.4-9.6l14.3-14.3l3.2,24.3
			l24.3,3.2L315.8,223.8z"/>
		<path class="st3" d="M362.9,201.3l-52.6-52.6l21.5-21.5c4.7-4.7,12.4-4.7,17.1,0l35.6,35.6c4.7,4.7,4.7,12.4,0,17.1L362.9,201.3z"
			/>
		<path class="st3" d="M130.6,368.4l13.4,13.4l-16.9,6.5c-1.8,0.7-3.5-1.1-2.9-2.8L130.6,368.4z"/>
		<polygon class="st3" points="206.3,357.9 149.1,379.9 132.5,363.3 153.6,305.2 		"/>
	</g>
</g>
<g id="Delete" class="st0">
	<circle class="st11" cx="256" cy="256" r="256"/>
	<path class="st8" d="M142.4,159.5L172,387.9c1.2,9.2,9,16.1,18.3,16.1h131.4c9.3,0,17.2-6.9,18.3-16.1l29.6-228.4H142.4z
		 M210.7,388.2c-5.2,0-9.8-4.2-10.4-9.3l-21-194.1c0-0.3,0-0.6,0-0.8c0-4.8,4.5-8.5,10.6-8.5c6.4,0,11.9,4.2,12.4,9.3l17.1,194.1
		C219.7,384,215.9,388.2,210.7,388.2z M266.1,378.8c0,4.9-4.4,9-10.1,9.3c-5.6-0.4-10.1-4.4-10.1-9.3V184.7c0-2.6,1.2-4.9,3.2-6.6
		c1.8-1.5,4.2-2.5,6.9-2.7c2.7,0.2,5.1,1.2,6.9,2.7c2,1.7,3.2,4,3.2,6.6V378.8z M332.7,184.7l-21,194.1c-0.5,5.2-5.2,9.3-10.4,9.3
		c-5.2,0-9-4.2-8.5-9.3l17.1-194.1c0.4-5.2,6-9.3,12.4-9.3c6,0,10.6,3.7,10.6,8.5C332.7,184.1,332.7,184.4,332.7,184.7z"/>
	<g class="st2">
		<path class="st3" d="M377.8,129.7c-4.7-4.7-11.2-7.6-18.3-7.6h-76.2v-3.2c0-6-4.9-10.9-10.9-10.9h-32.8c-6,0-10.9,4.9-10.9,10.9
			v3.2h-76.2c-7.1,0-13.6,2.9-18.3,7.6s-7.6,11.2-7.6,18.3h258.9C385.4,140.9,382.5,134.4,377.8,129.7z M278,122.1h-44v-3.2
			c0-3.1,2.5-5.6,5.6-5.6h32.8c3.1,0,5.6,2.5,5.6,5.6V122.1z"/>
	</g>
</g>
<g id="ISP_x5F_S" class="st0">
	<circle class="st12" cx="256" cy="256" r="256"/>
	<g class="st2">
		<path class="st3" d="M113.4,192.2h35.3v127.5h-35.3C113.4,319.7,113.4,192.2,113.4,192.2z"/>
		<path class="st3" d="M162.4,300.8l19.7-23.5c12.8,10,26.6,15.3,41.4,15.3c9.7,0,14.8-3.3,14.8-8.7v-0.4c0-5.5-4.2-8.2-21.7-12.4
			c-27.1-6.2-48.1-13.8-48.1-39.9v-0.4c0-23.7,18.8-40.8,49.4-40.8c21.7,0,38.6,5.8,52.5,16.9l-17.7,25
			c-11.7-8.4-24.4-12.6-35.7-12.6c-8.6,0-12.8,3.5-12.8,8.2v0.4c0,5.8,4.4,8.4,22.2,12.4c29.2,6.4,47.4,15.9,47.4,39.7v0.4
			c0,26.1-20.6,41.5-51.6,41.5C199.6,322,178.3,314.9,162.4,300.8z"/>
		<path class="st3" d="M290.9,192.2h54.8c32.1,0,52.8,16.6,52.8,44.6v0.4c0,30.2-23.1,46.1-54.7,46.1h-17.7v36.4h-35.3V192.2H290.9z
			 M343.2,255.6c12.4,0,20.2-6.7,20.2-16.8v-0.4c0-10.9-7.8-16.6-20.4-16.6h-16.8v33.7h17V255.6z"/>
	</g>
</g>
<g id="ISP_x5F_US" class="st0">
	<circle class="st13" cx="256" cy="256" r="256"/>
	<g class="st2">
		<path class="st14" d="M113.4,192.2h35.3v127.5h-35.3C113.4,319.7,113.4,192.2,113.4,192.2z"/>
		<path class="st14" d="M162.4,300.8l19.7-23.5c12.8,10,26.6,15.3,41.4,15.3c9.7,0,14.8-3.3,14.8-8.7v-0.4c0-5.5-4.2-8.2-21.7-12.4
			c-27.1-6.2-48.1-13.8-48.1-39.9v-0.4c0-23.7,18.8-40.8,49.4-40.8c21.7,0,38.6,5.8,52.5,16.9l-17.7,25
			c-11.7-8.4-24.4-12.6-35.7-12.6c-8.6,0-12.8,3.5-12.8,8.2v0.4c0,5.8,4.4,8.4,22.2,12.4c29.2,6.4,47.4,15.9,47.4,39.7v0.4
			c0,26.1-20.6,41.5-51.6,41.5C199.6,322,178.3,314.9,162.4,300.8z"/>
		<path class="st14" d="M290.9,192.2h54.8c32.1,0,52.8,16.6,52.8,44.6v0.4c0,30.2-23.1,46.1-54.7,46.1h-17.7v36.4h-35.3V192.2H290.9
			z M343.2,255.6c12.4,0,20.2-6.7,20.2-16.8v-0.4c0-10.9-7.8-16.6-20.4-16.6h-16.8v33.7h17V255.6z"/>
	</g>
</g>
<g id="Device_x5F_S" class="st0">
	<circle class="st12" cx="256" cy="256" r="256"/>
	<g class="st2">
		<path class="st3" d="M327.7,85H184.3c-10.9,0-19.8,8.8-19.8,19.8v302.5c0,10.9,8.8,19.8,19.8,19.8h143.4
			c10.9,0,19.8-8.8,19.8-19.8V104.8C347.5,93.8,338.6,85,327.7,85z M235.2,97.1c0.5-0.5,1.2-0.8,2-0.8h37.5c1.6,0,2.8,1.3,2.8,2.8
			c0,0.8-0.3,1.5-0.8,2s-1.2,0.8-2,0.8h-37.5c-1.6,0-2.8-1.3-2.8-2.8C234.4,98.3,234.7,97.6,235.2,97.1z M256,417.1
			c-5.1,0-9.1-4.1-9.1-9.1c0-5.1,4.1-9.1,9.1-9.1c5.1,0,9.1,4.1,9.1,9.1C265.1,413.1,261.1,417.1,256,417.1z M331,391.8H181V113.1
			h150V391.8z"/>
	</g>
</g>
<g id="Device_x5F_US" class="st0">
	<circle class="st13" cx="256" cy="256" r="256"/>
	<g class="st2">
		<path class="st14" d="M327.7,85H184.3c-10.9,0-19.8,8.8-19.8,19.8v302.5c0,10.9,8.8,19.8,19.8,19.8h143.4
			c10.9,0,19.8-8.8,19.8-19.8V104.8C347.5,93.8,338.6,85,327.7,85z M235.2,97.1c0.5-0.5,1.2-0.8,2-0.8h37.5c1.6,0,2.8,1.3,2.8,2.8
			c0,0.8-0.3,1.5-0.8,2s-1.2,0.8-2,0.8h-37.5c-1.6,0-2.8-1.3-2.8-2.8C234.4,98.3,234.7,97.6,235.2,97.1z M256,417.1
			c-5.1,0-9.1-4.1-9.1-9.1c0-5.1,4.1-9.1,9.1-9.1c5.1,0,9.1,4.1,9.1,9.1C265.1,413.1,261.1,417.1,256,417.1z M331,391.8H181V113.1
			h150V391.8z"/>
	</g>
</g>
<g id="Time_x5F_S" class="st0">
	<circle class="st12" cx="256" cy="256" r="256"/>
	<g class="st2">
		<path class="st3" d="M327.7,85H184.3c-10.9,0-19.8,8.8-19.8,19.8v302.5c0,10.9,8.8,19.8,19.8,19.8h143.4
			c10.9,0,19.8-8.8,19.8-19.8V104.8C347.5,93.8,338.6,85,327.7,85z M235.2,97.1c0.5-0.5,1.2-0.8,2-0.8h37.5c1.6,0,2.8,1.3,2.8,2.8
			c0,0.8-0.3,1.5-0.8,2s-1.2,0.8-2,0.8h-37.5c-1.6,0-2.8-1.3-2.8-2.8C234.4,98.3,234.7,97.6,235.2,97.1z M256,417.1
			c-5.1,0-9.1-4.1-9.1-9.1c0-5.1,4.1-9.1,9.1-9.1c5.1,0,9.1,4.1,9.1,9.1C265.1,413.1,261.1,417.1,256,417.1z M331,391.8H181V113.1
			h150V391.8z"/>
	</g>
</g>
<g id="Time_x5F_US" class="st0">
	<circle class="st13" cx="256" cy="256" r="256"/>
	<g class="st2">
		<path class="st14" d="M327.7,85H184.3c-10.9,0-19.8,8.8-19.8,19.8v302.5c0,10.9,8.8,19.8,19.8,19.8h143.4
			c10.9,0,19.8-8.8,19.8-19.8V104.8C347.5,93.8,338.6,85,327.7,85z M235.2,97.1c0.5-0.5,1.2-0.8,2-0.8h37.5c1.6,0,2.8,1.3,2.8,2.8
			c0,0.8-0.3,1.5-0.8,2s-1.2,0.8-2,0.8h-37.5c-1.6,0-2.8-1.3-2.8-2.8C234.4,98.3,234.7,97.6,235.2,97.1z M256,417.1
			c-5.1,0-9.1-4.1-9.1-9.1c0-5.1,4.1-9.1,9.1-9.1c5.1,0,9.1,4.1,9.1,9.1C265.1,413.1,261.1,417.1,256,417.1z M331,391.8H181V113.1
			h150V391.8z"/>
	</g>
</g>
<g id="Layer_12" class="st0">
	<g class="st2">
		<path d="M549.6,158.2c19.3,0,35,15.7,35,35s-15.7,35-35,35s-35-15.7-35-35S530.3,158.2,549.6,158.2 M549.6,149.2
			c-24.3,0-44,19.7-44,44s19.7,44,44,44s44-19.7,44-44S573.9,149.2,549.6,149.2L549.6,149.2z"/>
	</g>
	<polyline class="st15" points="549.5,166.5 549.5,193.5 566.5,206.5 	"/>
	<g class="st2">
		<path d="M866.5,286.7c-1.1-3.5-2.9-6.7-5.3-9.6c-2.4-2.9-5.7-5.5-9.8-7.9c-4.1-2.3-9.1-4.5-15-6.4l-15.7-5.1c-2.9-0.9-5-2-6.4-3.2
			c-1.3-1.2-2-3-2-5.3s1-4.2,2.9-5.7s4.8-2.3,8.6-2.3c4.8,0,8.6,0.8,11.5,2.3s5.6,3.6,8,6.1l18.1-18.6c-1.7-2-3.8-4-6.2-5.8
			s-5.1-3.4-8.3-4.9c-3.1-1.4-6.8-2.6-10.9-3.4c-4.1-0.8-8.8-1.3-14-1.3s-10.3,0.7-15.2,2.2s-9.2,3.7-13,6.6
			c-3.8,2.9-6.8,6.5-9,10.9c-2.2,4.3-3.3,9.3-3.3,15c0,4.8,0.7,9,2.2,12.7s3.5,7,6.1,9.8c2.6,2.9,5.7,5.3,9.3,7.4
			c3.6,2,7.5,3.8,11.8,5.1l14,4.6c4,1.3,6.9,2.6,8.8,4c1.9,1.4,2.9,3.4,2.9,5.9c0,3.3-1.3,5.7-3.9,7.1c-2.6,1.4-6.3,2.1-11.1,2.1
			c-0.3,0-0.5,0-0.8,0v25.8c0.7,0,1.5,0,2.2,0c7.8,0,14.5-0.9,20.2-2.7c5.7-1.8,10.4-4.4,14-7.6c3.7-3.2,6.4-7.1,8.1-11.6
			c1.8-4.5,2.6-9.4,2.6-14.8C868.2,294,867.6,290.2,866.5,286.7z"/>
	</g>
	<rect x="784" y="309" class="st2" width="23" height="25.7"/>
	<rect x="813" y="309" class="st2" width="3" height="25.7"/>
	<polygon class="st2" points="784,341.2 764.9,322.1 784,303 	"/>
	<g class="st2">
		<path d="M906,325v61h46v-61H906z M945.4,329l0.9-0.9l0.7,0.6l0.7-0.7l0.9,0.9l-0.7,0.7l0.6,0.6l-0.9,0.9l-0.7-0.6l-0.7,0.7
			l-0.9-0.9l0.7-0.7L945.4,329z M949,383h-40v-48h40V383z"/>
	</g>
	<rect x="913" y="350" class="st2" width="33" height="17"/>
	<rect x="913" y="340" class="st2" width="33" height="6"/>
	<path class="st2" d="M937.2,375h-16.4c-1.4,0-2.5-1.1-2.5-2.5l0,0c0-1.4,1.1-2.5,2.5-2.5h16.4c1.4,0,2.5,1.1,2.5,2.5l0,0
		C939.7,373.9,938.6,375,937.2,375z"/>
</g>
<g id="Guides" class="st0">
</g>
</svg>
