<?xml version="1.0" encoding="utf-8"?>
<!-- Generator: Adobe Illustrator 21.1.0, SVG Export Plug-In . SVG Version: 6.00 Build 0)  -->
<svg version="1.1" id="Layer_1" xmlns="http://www.w3.org/2000/svg" xmlns:xlink="http://www.w3.org/1999/xlink" x="0px" y="0px"
	 viewBox="0 0 512 512" style="enable-background:new 0 0 512 512;" xml:space="preserve">
<style type="text/css">
	.st0{fill:#333333;}
	.st1{display:none;}
	.st2{display:inline;}
	.st3{fill:#FFFFFF;}
</style>
<g id="New_NJump">
	<circle class="st0" cx="256" cy="256" r="256"/>
</g>
<g class="st1">
	<g class="st2">
		<g>
			<path class="st3" d="M363,193.2v106c0,15.1-12.2,27.4-27.4,27.4H215.5c-15.1,0-27.4-12.2-27.4-27.4V179
				c0-15.1,12.2-27.4,27.4-27.4h103.3l-19.5,19.9h-83.8c-4.2,0-7.5,3.4-7.5,7.5v120.2c0,4.2,3.4,7.5,7.5,7.5h120.2
				c4.2,0,7.5-3.4,7.5-7.5v-85.6L363,193.2z"/>
		</g>
		<g>
			<polygon class="st3" points="401.4,110.7 387.1,166.4 373.7,153.2 360.2,167 343.1,184.4 282.7,246.1 268.4,232.2 327.9,171.5 
				345.5,153.5 359.4,139.4 346.1,126.2 			"/>
		</g>
	</g>
	<g class="st2">
		<g>
			<path class="st3" d="M288.6,353v22.8c0,15.1-12.2,27.4-27.4,27.4H141c-15.1,0-27.4-12.2-27.4-27.4V255.7
				c0-15.1,12.2-27.4,27.4-27.4h21l-0.1,95.4c0,16.4,13.3,29.7,29.7,29.7L288.6,353z"/>
		</g>
	</g>
</g>
<g>
	<g>
		<g>
			<g>
				<path class="st3" d="M373.7,154.2V249c0,13.5-10.9,24.5-24.5,24.5H241.6c-13.5,0-24.5-10.9-24.5-24.5V141.5
					c0-13.5,10.9-24.5,24.5-24.5h92.5l-17.5,17.8h-75c-3.7,0-6.7,3-6.7,6.7V249c0,3.7,3,6.7,6.7,6.7h107.5c3.7,0,6.7-3,6.7-6.7
					v-76.6L373.7,154.2z"/>
			</g>
			<g>
				<polygon class="st3" points="408,80.3 395.2,130.2 383.2,118.4 371.1,130.7 355.8,146.3 301.7,201.5 289,189 342.2,134.7 
					358,118.6 370.4,106 358.5,94.2 				"/>
			</g>
		</g>
	</g>
	<g>
		<g>
			<path class="st3" d="M187.3,435.4c-31.6,0-56.8-10.6-75-31.4c-18-20.6-27.2-49.6-27.5-86.2v-45.7c0-37.9,9-68.1,26.8-89.6
				c18.1-21.9,43.4-33,75.3-33c31.4,0,56.5,10.9,74.7,32.4c17.9,21.2,27.2,51.1,27.4,88.9v45.7c0,37.1-9,66.4-26.8,87.2
				C244.3,424.7,219,435.4,187.3,435.4z M187,206.2c-12.2,0-20.9,4.6-26.7,14.1c-6.3,10.3-9.6,26.7-9.8,48.6l0,47.4
				c0,22.1,3.2,38.4,9.5,48.5c5.9,9.3,14.8,13.9,27.3,13.9c12,0,20.6-4.4,26.4-13.5c6.2-9.8,9.4-25.7,9.5-47.2v-46.4
				c0-22.9-3.2-40-9.5-50.8C208,211,199.2,206.2,187,206.2z"/>
			<path class="st0" d="M187,155.3c29.7,0,53.1,10.1,70.2,30.3c17.1,20.2,25.8,48.6,26,85.2v45.7c0,35.8-8.5,63.6-25.4,83.4
				c-16.9,19.8-40.4,29.7-70.5,29.7c-30,0-53.5-9.8-70.6-29.4c-17.1-19.6-25.8-47.1-26-82.4v-45.7c0-36.7,8.5-65.3,25.5-85.9
				C133.2,165.6,156.8,155.3,187,155.3 M187.3,384.6c14.1,0,24.5-5.4,31.4-16.2c6.8-10.8,10.3-27.6,10.5-50.3v-46.4
				c0-24.1-3.4-42-10.3-53.7c-6.8-11.7-17.5-17.6-31.9-17.6c-14.3,0-24.9,5.7-31.7,17c-6.8,11.3-10.4,28.5-10.6,51.6v47.5
				c0,23.4,3.5,40.6,10.5,51.6C162,379.1,172.8,384.6,187.3,384.6 M187,143.5c-33.7,0-60.6,11.8-79.8,35.2
				c-18.7,22.7-28.2,54.1-28.2,93.4v45.7v0l0,0c0.3,38.1,10,68.4,28.9,90.1c19.4,22.2,46.1,33.5,79.4,33.5
				c33.5,0,60.2-11.4,79.4-33.8c18.7-21.9,28.2-52.5,28.2-91.1v-45.7v0l0,0c-0.3-39.2-10-70.4-28.8-92.7
				C246.8,155.1,220.1,143.5,187,143.5L187,143.5z M156.3,269c0.2-20.8,3.2-36.2,8.9-45.6c4.7-7.8,11.4-11.3,21.7-11.3
				c10.3,0,17,3.6,21.8,11.8c5.8,9.9,8.7,25.9,8.7,47.8v46.4c-0.1,20.4-3,35.2-8.6,44.1c-4.6,7.3-11.5,10.8-21.4,10.8
				c-10.5,0-17.6-3.5-22.3-11.1c-5.7-9.1-8.6-24.4-8.6-45.4V269L156.3,269z"/>
		</g>
	</g>
</g>
<g class="st1">
	<g class="st2">
		<g>
			<path class="st3" d="M345.6,186.6v114.1c0,16.3-13.2,29.5-29.5,29.5H186.6c-16.3,0-29.5-13.2-29.5-29.5V171.3
				c0-16.3,13.2-29.5,29.5-29.5h111.3l-21.1,21.4h-90.2c-4.5,0-8,3.7-8,8v129.4c0,4.5,3.7,8,8,8h129.4c4.5,0,8-3.7,8-8v-92.2
				L345.6,186.6z"/>
		</g>
		<g>
			<polygon class="st3" points="386.9,97.8 371.4,157.7 357,143.5 342.5,158.3 324.1,177.1 259,243.5 243.6,228.6 307.7,163.2 
				326.7,143.8 341.7,128.6 327.3,114.4 			"/>
		</g>
	</g>
</g>
<g class="st1">
	<g class="st2">
		<path class="st3" d="M102,392.1c-11.4,0-20.5-3.9-27.2-11.5c-6.4-7.4-9.8-17.6-9.8-30.4v-14.8c0-13.2,3.2-23.8,9.6-31.5
			c6.6-8,15.8-12.1,27.4-12.1c11.3,0,20.5,4,27.1,11.9c6.4,7.6,9.7,18.1,9.8,31.2v14.8c0,12.9-3.2,23.3-9.6,30.7
			C122.6,388.2,113.4,392.1,102,392.1z M101.9,318.2c-3.2,0-4.4,1.3-5.2,2.6c-1.1,1.9-2.5,5.8-2.6,13.7l0,15.3
			c0,7.9,1.3,11.7,2.5,13.5c0.8,1.3,2.1,2.6,5.4,2.6c3.1,0,4.3-1.2,5.2-2.5c1.1-1.7,2.4-5.4,2.5-13.1v-14.9c0-8.3-1.4-12.4-2.5-14.4
			C105.9,319,104.4,318.2,101.9,318.2z"/>
		<path class="st0" d="M101.9,297.7c9.6,0,17.1,3.3,22.7,9.8c5.5,6.5,8.3,15.7,8.4,27.5v14.7c0,11.6-2.7,20.5-8.2,26.9
			c-5.5,6.4-13,9.6-22.8,9.6c-9.7,0-17.3-3.2-22.8-9.5c-5.5-6.3-8.3-15.2-8.4-26.6v-14.7c0-11.8,2.7-21.1,8.2-27.7
			C84.5,301.1,92.1,297.7,101.9,297.7 M102,371.8c4.5,0,7.9-1.7,10.1-5.2c2.2-3.5,3.3-8.9,3.4-16.2v-15c0-7.8-1.1-13.6-3.3-17.3
			c-2.2-3.8-5.6-5.7-10.3-5.7c-4.6,0-8,1.8-10.2,5.5c-2.2,3.6-3.4,9.2-3.4,16.7v15.3c0,7.5,1.1,13.1,3.4,16.7
			C93.8,370,97.3,371.8,102,371.8 M101.9,286c-13.2,0-24.2,4.9-31.9,14.2C62.7,309,59,320.9,59,335.4v14.7v0l0,0
			c0.1,14.2,3.9,25.8,11.3,34.2C78.1,393.3,89,398,102,398c13.1,0,24-4.7,31.7-13.7c7.3-8.5,11-20.2,11-34.6V335v0l0,0
			c-0.1-14.6-3.9-26.3-11.2-35C125.8,290.8,114.8,286,101.9,286L101.9,286z M101.5,324.1c0.1,0,0.2,0,0.3,0c0.1,0,0.2,0,0.2,0
			c0.5,0.9,1.6,3.9,1.6,11.3v14.9c0,6.4-1,9-1.4,9.8c-0.1,0-0.2,0-0.3,0c-0.2,0-0.4,0-0.6,0c-0.4-0.7-1.5-3.4-1.5-10.2v-15.3
			C100,327.7,101.1,324.9,101.5,324.1L101.5,324.1z"/>
	</g>
	<g class="st2">
		<polygon class="st3" points="139.5,391 139.5,293.1 199,293.1 199,319.3 168.7,319.3 168.7,329.6 195.7,329.6 195.7,355.8 
			168.7,355.8 168.7,391 		"/>
		<path class="st0" d="M193.1,298.9v14.5h-30.3v22.1h27v14.4h-27v35.1h-17.4v-86.2H193.1 M204.8,287.2h-11.7h-47.7h-11.7v11.7v86.2
			v11.7h11.7h17.4h11.7v-11.7v-23.4h15.3h11.7v-11.7v-14.4v-10.3h3.3v-11.7v-14.5V287.2L204.8,287.2z"/>
	</g>
	<g class="st2">
		<polygon class="st3" points="197.2,391 197.2,293.1 256.6,293.1 256.6,319.3 226.3,319.3 226.3,329.6 253.3,329.6 253.3,355.8 
			226.3,355.8 226.3,391 		"/>
		<path class="st0" d="M250.7,298.9v14.5h-30.3v22.1h27v14.4h-27v35.1H203v-86.2H250.7 M262.5,287.2h-11.7H203h-11.7v11.7v86.2v11.7
			H203h17.4h11.7v-11.7v-23.4h15.3h11.7v-11.7v-14.4v-10.3h3.3v-11.7v-14.5V287.2L262.5,287.2z"/>
	</g>
	<g class="st2">
		<polygon class="st3" points="254.8,391 254.8,293.1 315.9,293.1 315.9,319.3 283.9,319.3 283.9,327.9 311,327.9 311,353.7 
			283.9,353.7 283.9,364.8 316,364.8 316,391 		"/>
		<path class="st0" d="M310,298.9v14.5h-32v20.4h27.1v14h-27.1v22.8h32.1v14.4h-49.5v-86.2H310 M321.8,287.2H310h-49.4h-11.7v11.7
			v86.2v11.7h11.7h49.5h11.7v-11.7v-14.4v-11.7h-5v-11.1v-14v-8.6h4.9v-11.7v-14.5V287.2L321.8,287.2z"/>
	</g>
	<g class="st2">
		<path class="st3" d="M355.3,391l-11.8-28.7V391h-29.1v-97.9H348c10.2,0,18.4,2.8,24.2,8.4c5.9,5.6,9,13.6,9,23.5
			c0,13.5-5.3,21.5-11.1,26.2l13.7,31.9v7.9H355.3z M347.5,333.2c2.3,0,2.8-0.8,3.1-1.1c0.9-1.3,1.4-3.2,1.4-5.7
			c0-7.1-2.3-7.1-4.2-7.1h-4.3v13.9H347.5z"/>
		<path class="st0" d="M348,298.9c8.7,0,15.5,2.3,20.2,6.8c4.8,4.5,7.1,10.9,7.1,19.3c0,11.4-4.2,19.4-12.5,24l15.1,35.3v0.8h-18.7
			l-13-31.5h-8.6v31.5h-17.4v-86.2H348 M337.6,339.1h9.9c3.5,0,6.1-1.2,7.8-3.5c1.7-2.3,2.6-5.4,2.6-9.3c0-8.6-3.4-13-10.1-13h-10.2
			V339.1 M348,287.2h-27.8h-11.7v11.7v86.2v11.7h11.7h17.4h11.7V392l2,4.9h7.9h18.7h11.7v-11.7v-0.8v-2.4l-0.9-2.2l-11.6-27
			c5.5-5.7,9.9-14.5,9.9-27.7c0-11.6-3.6-21-10.8-27.8C369.3,290.6,359.7,287.2,348,287.2L348,287.2z"/>
	</g>
	<g class="st2">
		<path class="st3" d="M414.5,392.1c-6.5,0-12.5-1.4-17.8-4.1c-5.6-2.8-10-6.8-13.1-12c-3.1-5.2-4.7-11.3-4.7-18.1v-5.9h24.6
			c-6.8-3.1-11.8-6.7-15.4-10.8c-4.7-5.5-7.1-12-7.1-19.4c0-9,3.3-16.4,9.8-21.9c6.2-5.3,14.1-8,23.4-8c6.2,0,11.9,1.4,16.9,4
			c5.1,2.8,9.1,6.7,11.9,11.8c2.7,4.9,4.1,10.5,4.1,16.7v5.9h-24.2c7.5,3.1,13.1,6.9,17,11.4c4.7,5.5,7.1,12.5,7.1,20.7
			c0,9.2-3.1,16.6-9.1,22C432,389.5,424.2,392.1,414.5,392.1z M408,357.9c0,4.8,1,6.5,1.5,7c0.7,0.9,2.5,1.3,5,1.3
			c3.2,0,3.2-1.2,3.2-3.8c0-1.1-0.1-3-1-3.8c-0.6-0.6-2.4-2.1-7.8-4.3c-0.3-0.1-0.7-0.2-1-0.4V357.9z M413.9,317.9
			c-2,0-2.6,0.6-2.8,0.9c-0.2,0.2-0.9,1-0.9,3.2c0,0.6,0.1,1.3,1.1,2.3c0.7,0.7,2.5,2.1,6.8,4.1v-3.9c0-2.5-0.4-4.5-1.3-5.5
			C416.5,318.6,415.9,317.9,413.9,317.9z"/>
		<path class="st0" d="M414.2,297.7c5.3,0,10,1.1,14.1,3.3c4.1,2.2,7.3,5.4,9.6,9.4c2.2,4.1,3.3,8.7,3.3,13.8h-17.3
			c0-4-0.9-7.1-2.6-9.2c-1.7-2.1-4.2-3.2-7.4-3.2c-3,0-5.4,0.9-7.1,2.7c-1.7,1.8-2.5,4.2-2.5,7.2c0,2.4,0.9,4.5,2.8,6.4
			c1.9,1.9,5.2,3.9,10.1,5.9c8.4,3,14.5,6.8,18.3,11.2c3.8,4.4,5.7,10,5.7,16.9c0,7.5-2.4,13.4-7.2,17.6c-4.8,4.2-11.3,6.3-19.5,6.3
			c-5.6,0-10.6-1.1-15.2-3.4c-4.6-2.3-8.2-5.6-10.7-9.8c-2.6-4.3-3.9-9.3-3.9-15.1h17.5c0,5,1,8.6,2.9,10.8c1.9,2.2,5.1,3.4,9.5,3.4
			c6.1,0,9.1-3.2,9.1-9.6c0-3.5-0.9-6.2-2.7-8c-1.8-1.8-5.1-3.7-9.8-5.6c-8.6-3.3-14.9-7.1-18.6-11.5c-3.8-4.4-5.7-9.6-5.7-15.6
			c0-7.3,2.6-13.1,7.7-17.5C399.7,299.9,406.2,297.7,414.2,297.7 M414.2,286c-10.8,0-19.9,3.2-27.2,9.4
			c-7.7,6.6-11.8,15.7-11.8,26.4c0,8.9,2.9,16.7,8.5,23.2c0.3,0.4,0.7,0.7,1,1.1H373v11.7c0,8,1.9,15.1,5.6,21.2
			c3.7,6.2,9,11,15.5,14.2c6.2,3.1,13.1,4.7,20.5,4.7c11.1,0,20.3-3.1,27.2-9.3c5.1-4.5,11.1-12.7,11.1-26.4
			c0-9.7-2.9-17.9-8.6-24.5c-0.5-0.6-1-1.2-1.6-1.7H453v-11.7c0-7.1-1.6-13.7-4.8-19.5c-3.3-6.1-8.1-10.8-14.3-14.1
			C428,287.6,421.4,286,414.2,286L414.2,286z"/>
	</g>
</g>
<g class="st1">
	<g class="st2">
		<g>
			<g>
				<path class="st3" d="M353.5,219.7v151.2c0,21.5-17.4,39.1-39.1,39.1H142.9c-21.5,0-39.1-17.4-39.1-39.1V199.5
					c0-21.5,17.4-39.1,39.1-39.1h147.4l-27.9,28.3H142.9c-5.9,0-10.7,4.8-10.7,10.7v171.4c0,5.9,4.8,10.7,10.7,10.7h171.4
					c5.9,0,10.7-4.8,10.7-10.7V248.7L353.5,219.7z"/>
			</g>
			<g>
				<polygon class="st3" points="408.2,102 387.7,181.5 368.6,162.6 349.4,182.2 325,207.1 314.2,219.6 293.9,199.8 303.3,188.7 
					328.5,163.1 348.3,142.9 329.2,124.1 				"/>
			</g>
		</g>
	</g>
	<g class="st2">
		<g>
			<path class="st3" d="M228.9,372.1c-19.5,0-35.1-6.6-46.4-19.6c-11.1-12.7-16.7-30.4-16.9-52.6v-26.7c0-22.9,5.5-41.3,16.5-54.5
				c11.3-13.6,26.9-20.6,46.7-20.6c19.4,0,35,6.8,46.3,20.2c11,13,16.7,31.2,16.8,54.1v26.7c0,22.5-5.5,40.4-16.5,53.2
				C264.1,365.5,248.4,372.1,228.9,372.1z M228.6,238.5c-5.9,0-9.8,2-12.5,6.5c-3.3,5.5-5.1,14.4-5.2,26.5l0,27.6
				c0,15.2,2.7,22.7,5,26.4c2.8,4.4,6.8,6.4,12.9,6.4c5.8,0,9.6-1.9,12.4-6.2c2.2-3.5,4.9-10.9,5-25.6v-27c0-12.7-1.7-22.1-5-27.8
				C238.5,240.6,234.6,238.5,228.6,238.5z"/>
			<path class="st0" d="M228.6,205.2c17.3,0,31,5.9,40.9,17.7c10,11.8,15,28.3,15.2,49.6v26.6c0,20.9-4.9,37.1-14.8,48.6
				c-9.9,11.5-23.6,17.3-41.1,17.3c-17.5,0-31.2-5.7-41.1-17.2c-10-11.4-15-27.4-15.2-48v-26.6c0-21.4,5-38.1,14.9-50.1
				C197.3,211.2,211,205.2,228.6,205.2 M228.9,338.9c8.2,0,14.3-3.2,18.3-9.5c4-6.3,6-16.1,6.1-29.3v-27c0-14-2-24.5-6-31.3
				c-4-6.8-10.2-10.3-18.6-10.3c-8.3,0-14.5,3.3-18.5,9.9c-4,6.6-6.1,16.6-6.2,30.1v27.7c0,13.6,2,23.6,6.1,30.1
				C214.1,335.7,220.4,338.9,228.9,338.9 M228.6,191.2c-21.9,0-39.4,7.8-52.1,23.1c-12,14.5-18.1,34.4-18.1,59v26.6v0l0,0
				c0.2,23.9,6.4,43.2,18.6,57.1c12.7,14.6,30.1,21.9,51.7,21.9c21.7,0,39.1-7.5,51.7-22.2c12.1-14.1,18.2-33.5,18.2-57.7v-26.6v0
				l0,0c-0.2-24.6-6.4-44.3-18.5-58.6C267.6,198.9,250.2,191.2,228.6,191.2L228.6,191.2z M218,271.6c0.2-14.2,2.7-20.4,4.2-22.9
				c1-1.7,2.2-3.1,6.5-3.1c3.9,0,5.2,1.1,6.5,3.3c1.5,2.6,4.1,9.2,4.1,24.3v27c-0.1,13.8-2.5,19.6-3.9,21.9c-1,1.5-2.2,2.9-6.4,2.9
				c-4.6,0-5.9-1.5-7-3.1c-1.5-2.3-3.9-8.4-3.9-22.6V271.6L218,271.6z"/>
		</g>
	</g>
</g>
</svg>
