<?xml version="1.0" encoding="utf-8"?>
<!-- Generator: Adobe Illustrator 21.0.2, SVG Export Plug-In . SVG Version: 6.00 Build 0)  -->
<svg version="1.1" xmlns="http://www.w3.org/2000/svg" xmlns:xlink="http://www.w3.org/1999/xlink" x="0px" y="0px"
	 viewBox="0 0 512 512" style="enable-background:new 0 0 512 512;" xml:space="preserve">
<style type="text/css">
	.st0{display:none;}
	.st1{display:inline;fill:#4FA954;}
	.st2{display:inline;}
	.st3{fill:#FFFFFF;}
	.st4{display:inline;fill:#FFFFFF;}
	.st5{fill:#313131;}
	.st6{display:inline;fill:#22B573;}
	.st7{display:inline;fill:none;stroke:#FFFFFF;stroke-width:20;stroke-miterlimit:10;}
	.st8{fill:#22B573;}
	.st9{fill:#4A4A4A;}
	.st10{fill:none;}
	.st11{display:inline;fill:#7656E8;}
	.st12{display:inline;fill:#F8BC32;}
	.st13{display:inline;fill:#4285F4;}
	.st14{display:inline;fill:#EA4535;}
	.st15{display:inline;fill:#141414;}
	.st16{display:inline;fill:#B2B2B2;}
	.st17{fill:#777777;}
	.st18{display:inline;fill:none;stroke:#000000;stroke-width:5;stroke-linecap:round;stroke-linejoin:round;stroke-miterlimit:10;}
</style>
<g id="New_NJump" class="st0">
	<circle class="st1" cx="256" cy="256" r="256"/>
	<g class="st2">
		<path class="st3" d="M236,275.3h-67.5v-39H236v-66.8H276v66.8h67.5v39H276v67.1H236V275.3z"/>
	</g>
</g>
<g id="Layer_13" class="st0">
	<g>
		<polygon class="st4" points="255.8,92.4 308.7,199.6 427,216.8 341.4,300.3 361.6,418.1 255.8,362.5 149.9,418.1 170.1,300.3 
			84.5,216.8 202.8,199.6 		"/>
	</g>
</g>
<g id="Layer_14" class="st0">
	<g class="st2">
		<path class="st5" d="M178,301.7c0.4-2.6-0.4-5.2-2.3-7.1l-74-72.1L204,207.6c2.6-0.4,4.9-2,6-4.4l45.7-92.7l45.7,92.7
			c1.2,2.4,3.4,4,6,4.4l102.3,14.9l-74,72.1c-1.9,1.8-2.7,4.5-2.3,7.1L351,403.5l-91.5-48.1c-1.2-0.6-2.4-0.9-3.7-0.9
			c-1.3,0-2.6,0.3-3.7,0.9l-91.5,48.1L178,301.7z"/>
		<path class="st3" d="M255.8,128.6l38.6,78.1c2.3,4.7,6.8,8,12,8.8l86.2,12.5l-62.4,60.8c-3.8,3.7-5.5,9-4.6,14.2l14.7,85.9
			l-77.1-40.6c-2.3-1.2-4.9-1.8-7.4-1.8c-2.6,0-5.1,0.6-7.4,1.8l-77.1,40.6l14.7-85.9c0.9-5.2-0.8-10.5-4.6-14.2L118.9,228
			l86.2-12.5c5.2-0.8,9.7-4,12-8.8L255.8,128.6 M255.8,92.4l-52.9,107.2L84.5,216.8l85.6,83.5l-20.2,117.8l105.8-55.6l105.8,55.6
			l-20.2-117.8l85.6-83.5l-118.3-17.2L255.8,92.4L255.8,92.4z"/>
	</g>
</g>
<g id="Eye" class="st0">
	<circle class="st6" cx="256" cy="256" r="256"/>
	<path class="st7" d="M438,256c0,0-81.5,90-182,90S74,256,74,256s81.5-90,182-90S438,256,438,256z"/>
	<circle class="st4" cx="256" cy="256" r="83.5"/>
	<g class="st2">
		<path class="st8" d="M256,213.8c23.3,0,42.2,18.9,42.2,42.2s-18.9,42.2-42.2,42.2s-42.2-18.9-42.2-42.2S232.7,213.8,256,213.8
			 M256,207c-27.1,0-49,21.9-49,49s21.9,49,49,49s49-21.9,49-49S283.1,207,256,207L256,207z"/>
	</g>
	<g class="st2">
		<polygon class="st8" points="247.2,255 238.6,269.9 255.8,269.9 		"/>
		<polygon class="st8" points="256,240.1 247.4,255 264.6,255 		"/>
		<polygon class="st8" points="264.8,255 256.2,269.9 273.4,269.9 		"/>
	</g>
</g>
<g id="Layer_18" class="st0">
	<circle class="st4" cx="256" cy="256" r="256"/>
	<g class="st2">
		<g>
			<g>
				<path class="st9" d="M256,413c-86.6,0-157-70.4-157-157h30c0,70,57,127,127,127c70,0,127-57,127-127c0-24.1-6.8-47.6-19.6-67.9
					c-12.5-19.8-30.2-35.7-51.1-46l13.3-26.9c25.8,12.8,47.7,32.4,63.1,56.8c15.9,25.1,24.3,54.1,24.3,83.9
					C413,342.6,342.6,413,256,413z"/>
			</g>
			<g>
				<polygon class="st9" points="319.3,177.7 256,114 342.8,91 				"/>
			</g>
		</g>
		<g>
			<path class="st9" d="M129,256H99c0-5.5,0.3-11.1,0.9-16.5l29.8,3.1C129.2,247,129,251.5,129,256z M130.9,233.7l-29.5-5.2
				c1-5.4,2.2-10.9,3.8-16.2l28.8,8.3C132.7,225,131.7,229.3,130.9,233.7z M136.8,212.2l-28.2-10.3c1.9-5.2,4.1-10.3,6.5-15.2
				l26.9,13.3C140.1,203.9,138.3,208,136.8,212.2z M146.3,192l-25.9-15.1c2.8-4.8,5.8-9.4,9.1-13.8l24.2,17.8
				C151,184.4,148.5,188.2,146.3,192z M159.2,173.8l-22.9-19.4c3.6-4.2,7.4-8.2,11.4-12l20.7,21.7
				C165.2,167.1,162.1,170.4,159.2,173.8z M175.1,158.1L156,135c4.2-3.5,8.7-6.8,13.3-9.9l16.6,25
				C182.2,152.6,178.5,155.2,175.1,158.1z"/>
		</g>
	</g>
	<g class="st2">
		<path class="st9" d="M292.9,356.4c-6.1,0-11.8-3.7-14-9.7L250,269.9l-28.5,5.8c-8.1,1.6-16-3.6-17.7-11.7s3.6-16,11.7-17.7l41-8.3
			c7.2-1.5,14.4,2.5,17,9.4l33.3,88.8c2.9,7.8-1,16.4-8.8,19.3C296.4,356.1,294.7,356.4,292.9,356.4z"/>
	</g>
</g>
<g id="Layer_19">
	<circle class="st3" cx="256" cy="256" r="256"/>
	<g>
		<g>
			<g>
				<path class="st9" d="M256,413c-86.6,0-157-70.4-157-157h30c0,70,57,127,127,127c70,0,127-57,127-127c0-24.1-6.8-47.6-19.6-67.9
					c-12.5-19.8-30.2-35.7-51.1-46l13.3-26.9c25.8,12.8,47.7,32.4,63.1,56.8c15.9,25.1,24.3,54.1,24.3,83.9
					C413,342.6,342.6,413,256,413z"/>
			</g>
			<g>
				<polygon class="st9" points="319.3,177.7 256,114 342.8,91 				"/>
			</g>
		</g>
		<g>
			<path class="st9" d="M129,256H99c0-5.5,0.3-11.1,0.9-16.5l29.8,3.1C129.2,247,129,251.5,129,256z M130.9,233.7l-29.5-5.2
				c1-5.4,2.2-10.9,3.8-16.2l28.8,8.3C132.7,225,131.7,229.3,130.9,233.7z M136.8,212.2l-28.2-10.3c1.9-5.2,4.1-10.3,6.5-15.2
				l26.9,13.3C140.1,203.9,138.3,208,136.8,212.2z M146.3,192l-25.9-15.1c2.8-4.8,5.8-9.4,9.1-13.8l24.2,17.8
				C151,184.4,148.5,188.2,146.3,192z M159.2,173.8l-22.9-19.4c3.6-4.2,7.4-8.2,11.4-12l20.7,21.7
				C165.2,167.1,162.1,170.4,159.2,173.8z M175.1,158.1L156,135c4.2-3.5,8.7-6.8,13.3-9.9l16.6,25
				C182.2,152.6,178.5,155.2,175.1,158.1z"/>
		</g>
	</g>
	<g>
		<path class="st9" d="M292.9,356.4c-6.1,0-11.8-3.7-14-9.7L250,269.9l-28.5,5.8c-8.1,1.6-16-3.6-17.7-11.7s3.6-16,11.7-17.7l41-8.3
			c7.2-1.5,14.4,2.5,17,9.4l33.3,88.8c2.9,7.8-1,16.4-8.8,19.3C296.4,356.1,294.7,356.4,292.9,356.4z"/>
	</g>
</g>
<g id="Layer_20" class="st0">
	<g class="st2">
		<g>
			<path class="st3" d="M150.3,371.8c-32.5-29.6-51.1-71.8-51.1-115.8c0-86.4,70.3-156.8,156.8-156.8v30
				c-69.9,0-126.8,56.9-126.8,126.8c0,35.5,15.1,69.6,41.3,93.6L150.3,371.8z"/>
		</g>
		<g>
			<g>
				<polygon class="st3" points="127.1,390.2 216.8,392.3 173.7,313.5 				"/>
			</g>
		</g>
	</g>
	<g class="st2">
		<path class="st10" d="M309.5,124.7"/>
	</g>
	<g class="st2">
		<g>
			<path class="st3" d="M256,412.8v-30c69.9,0,126.8-56.9,126.8-126.8c0-31-11.3-60.8-31.8-84l22.5-19.9
				c25.4,28.7,39.3,65.5,39.3,103.9C412.8,342.4,342.4,412.8,256,412.8z"/>
		</g>
		<g>
			<g>
				<polygon class="st3" points="398.5,136.3 309.5,124.7 343.9,207.6 				"/>
			</g>
		</g>
	</g>
</g>
<g id="Copy" class="st0">
	<circle class="st11" cx="256" cy="256" r="256"/>
	<g id="MwWHP7.tif" class="st2">
		<g>
			<path class="st3" d="M233.8,257.1c-1.8,1.4-3.4,2.3-4.6,3.5c-7.4,7.3-14.6,14.7-22,21.9c-1.4,1.3-1.3,2.3-0.3,3.6
				c3.4,4.3,6.3,9,10.1,12.8c27.6,28.3,74.8,28.9,102.6,1.5c17.8-17.6,35.5-35.2,53.1-53c17.5-17.7,25-39.2,21-63.8
				c-4.6-28.4-20.9-48.5-48-58c-27.5-9.7-53.1-4.4-74.7,15.4c-14,12.8-27,26.7-40.4,40.1c-0.3,0.3-0.4,0.7-0.7,1.2
				c15.7-2.3,30.7-0.6,45.3,4.6c0.8,0.3,2.2-0.2,2.8-0.9c5.5-5.4,10.9-11,16.4-16.5c9-8.9,19.8-13,32.4-10.8
				c14.4,2.4,24.2,10.8,28.9,24.5c4.7,13.8,1.9,26.5-8.3,36.9c-17.5,18-35.4,35.6-53.2,53.3c-13.7,13.6-36.9,13.5-50.7-0.1
				C239.1,269,236,263.7,233.8,257.1z M278.1,262.8c1.5-1,2.8-1.7,3.8-2.6c7.7-7.6,15.3-15.3,23.1-22.9c1.1-1.1,1.2-2,0.3-3.2
				c-2.7-3.7-5.1-7.7-8.2-11c-27.8-30.1-74.6-32-104.4-3.8c-18.5,17.6-36.4,35.7-54.1,54c-17.6,18.1-24.6,40-19.9,64.9
				c5.3,28.2,22,47.7,49.2,56.7c27.1,9,52.2,3.4,73.3-16c13.9-12.8,26.8-26.5,40.2-39.9c0.3-0.3,0.5-0.7,0.8-1.1
				c-0.4,0-0.6-0.1-0.8-0.1c-15.1,2.1-29.8,0.5-44.1-4.5c-0.9-0.3-2.4,0.1-3.1,0.8c-5.6,5.4-11,11-16.5,16.4
				c-9.6,9.5-21.1,13.4-34.4,10.5c-13.8-3.1-23.2-11.6-27.3-25.2c-4.2-13.9-0.8-26.4,9.3-36.8c17-17.3,34.1-34.4,51.4-51.4
				c12.4-12.2,29.1-14.6,43.8-6.7C269.2,245.5,274.9,252.8,278.1,262.8z"/>
			<path class="st3" d="M233.8,257.1c2.2,6.6,5.2,11.9,9.8,16.4c13.8,13.5,36.9,13.7,50.7,0.1c17.8-17.7,35.7-35.3,53.2-53.3
				c10.1-10.4,12.9-23.2,8.3-36.9c-4.6-13.7-14.5-22.1-28.9-24.5c-12.6-2.2-23.4,1.9-32.4,10.8c-5.5,5.4-10.9,11-16.4,16.5
				c-0.6,0.6-2.1,1.1-2.8,0.9c-14.6-5.2-29.6-6.8-45.3-4.6c0.3-0.6,0.5-1,0.7-1.2c13.4-13.4,26.4-27.3,40.4-40.1
				c21.6-19.8,47.2-25.1,74.7-15.4c27.1,9.6,43.4,29.6,48,58c3.9,24.5-3.5,46-21,63.8c-17.6,17.8-35.3,35.4-53.1,53
				c-27.8,27.4-75.1,26.8-102.6-1.5c-3.8-3.9-6.7-8.5-10.1-12.8c-1-1.3-1.1-2.3,0.3-3.6c7.4-7.2,14.6-14.6,22-21.9
				C230.4,259.4,232,258.5,233.8,257.1z"/>
			<path class="st3" d="M278.1,262.8c-3.2-10-8.9-17.3-17.7-22c-14.7-7.9-31.5-5.4-43.8,6.7c-17.3,17-34.4,34.1-51.4,51.4
				c-10.1,10.3-13.5,22.8-9.3,36.8c4.1,13.6,13.5,22.1,27.3,25.2c13.3,3,24.8-1,34.4-10.5c5.5-5.4,10.9-11,16.5-16.4
				c0.7-0.7,2.2-1.1,3.1-0.8c14.4,5.1,29,6.7,44.1,4.5c0.2,0,0.4,0,0.8,0.1c-0.3,0.4-0.5,0.8-0.8,1.1
				c-13.4,13.3-26.3,27.1-40.2,39.9c-21.1,19.4-46.2,25-73.3,16c-27.2-9-43.9-28.4-49.2-56.7c-4.6-24.8,2.4-46.8,19.9-64.9
				c17.8-18.3,35.7-36.4,54.1-54c29.7-28.3,76.6-26.4,104.4,3.8c3.1,3.4,5.5,7.4,8.2,11c0.9,1.2,0.8,2.1-0.3,3.2
				c-7.7,7.6-15.4,15.3-23.1,22.9C280.9,261.1,279.6,261.8,278.1,262.8z"/>
		</g>
	</g>
</g>
<g id="Layer_17" class="st0">
	<circle class="st11" cx="256" cy="256" r="256"/>
	<g id="ASXF9M.tif" class="st2">
		<g>
			<path class="st3" d="M224.9,288.8c-5.2-4.3-9.5-7.7-13.7-11.2c-15.7-13-31-26.7-47.3-39c-16.7-12.7-36.2-9.5-47.4,6.3
				c-12.2,17.2-9.5,37,7.3,51.2c26,22,52.2,43.7,78.2,65.7c20.9,17.7,39.9,16,57.5-4.9c42.6-50.5,85.3-100.8,127.8-151.4
				c4.1-4.9,8.1-10.6,10.4-16.6c6.2-16.3-0.4-33.8-15.3-43.1c-14.4-8.9-31.6-5.6-43.9,8.9c-22,25.9-43.8,52-65.8,78
				C257.1,251.3,241.3,269.6,224.9,288.8z"/>
		</g>
	</g>
</g>
<g id="Clone" class="st0">
	<circle class="st12" cx="256" cy="256" r="256"/>
	<g class="st2">
		<path class="st3" d="M385,154.3v172.3c0,1.3-1.1,2.4-2.4,2.4h-90.1v-98.7c0-32.6-24.2-59.6-55.5-64.2v-56.8c0-1.3,1.1-2.4,2.4-2.4
			h98.3C363.8,107,385,128.2,385,154.3z"/>
		<path class="st3" d="M275,230.3v172.3c0,1.3-1.1,2.4-2.4,2.4H129.4c-1.3,0-2.4-1.1-2.4-2.4V185.4c0-1.3,1.1-2.4,2.4-2.4h98.3
			c3.2,0,6.3,0.3,9.3,0.9C258.7,188.2,275,207.4,275,230.3z"/>
	</g>
</g>
<g id="Edit" class="st0">
	<circle class="st13" cx="257" cy="256" r="256"/>
	<g class="st2">
		<path class="st3" d="M302.5,156.4L158.9,299.9l52.6,52.6L355.1,209L302.5,156.4z M295.8,234.3l-15.2-2.9l-2.9-15.2l6.8-6.8
			L287,225l15.5,2.6L295.8,234.3z M315.8,223.8l-9.4-1.2l7.6-7.6l-14.6-2.3l-2.1-14.4l-7.6,7.6l-1.4-9.6l14.3-14.3l3.2,24.3
			l24.3,3.2L315.8,223.8z"/>
		<path class="st3" d="M362.9,201.3l-52.6-52.6l21.5-21.5c4.7-4.7,12.4-4.7,17.1,0l35.6,35.6c4.7,4.7,4.7,12.4,0,17.1L362.9,201.3z"
			/>
		<path class="st3" d="M130.6,368.4l13.4,13.4l-16.9,6.5c-1.8,0.7-3.5-1.1-2.9-2.8L130.6,368.4z"/>
		<polygon class="st3" points="206.3,357.9 149.1,379.9 132.5,363.3 153.6,305.2 		"/>
	</g>
</g>
<g id="Delete" class="st0">
	<circle class="st14" cx="256" cy="256" r="256"/>
	<path class="st4" d="M142.4,159.5l29.6,228.4c1.2,9.2,9,16.1,18.3,16.1h131.4c9.3,0,17.2-6.9,18.3-16.1l29.6-228.4H142.4z
		 M210.7,388.2c-5.2,0-9.8-4.2-10.4-9.3l-21-194.1c0-0.3,0-0.6,0-0.8c0-4.8,4.5-8.5,10.6-8.5c6.4,0,11.9,4.2,12.4,9.3l17.1,194.1
		C219.7,384,215.9,388.2,210.7,388.2z M266.1,378.8c0,4.9-4.4,9-10.1,9.3c-5.6-0.4-10.1-4.4-10.1-9.3V184.7c0-2.6,1.2-4.9,3.2-6.6
		c1.8-1.5,4.2-2.5,6.9-2.7c2.7,0.2,5.1,1.2,6.9,2.7c2,1.7,3.2,4,3.2,6.6V378.8z M332.7,184.7l-21,194.1c-0.5,5.2-5.2,9.3-10.4,9.3
		c-5.2,0-9-4.2-8.5-9.3l17.1-194.1c0.4-5.2,6-9.3,12.4-9.3c6,0,10.6,3.7,10.6,8.5C332.7,184.1,332.7,184.4,332.7,184.7z"/>
	<g class="st2">
		<path class="st3" d="M377.8,129.7c-4.7-4.7-11.2-7.6-18.3-7.6h-76.2v-3.2c0-6-4.9-10.9-10.9-10.9h-32.8c-6,0-10.9,4.9-10.9,10.9
			v3.2h-76.2c-7.1,0-13.6,2.9-18.3,7.6c-4.7,4.7-7.6,11.2-7.6,18.3h258.9C385.4,140.9,382.5,134.4,377.8,129.7z M278,122.1H234v-3.2
			c0-3.1,2.5-5.6,5.6-5.6h32.8c3.1,0,5.6,2.5,5.6,5.6V122.1z"/>
	</g>
</g>
<g id="ISP_x5F_S" class="st0">
	<circle class="st15" cx="256" cy="256" r="256"/>
	<g class="st2">
		<path class="st3" d="M113.4,192.2h35.3v127.5h-35.3V192.2z"/>
		<path class="st3" d="M162.4,300.8l19.7-23.5c12.8,10,26.6,15.3,41.4,15.3c9.7,0,14.8-3.3,14.8-8.7v-0.4c0-5.5-4.2-8.2-21.7-12.4
			c-27.1-6.2-48.1-13.8-48.1-39.9v-0.4c0-23.7,18.8-40.8,49.4-40.8c21.7,0,38.6,5.8,52.5,16.9l-17.7,25
			c-11.7-8.4-24.4-12.6-35.7-12.6c-8.6,0-12.8,3.5-12.8,8.2v0.4c0,5.8,4.4,8.4,22.2,12.4c29.2,6.4,47.4,15.9,47.4,39.7v0.4
			c0,26.1-20.6,41.5-51.6,41.5C199.6,322,178.3,314.9,162.4,300.8z"/>
		<path class="st3" d="M290.9,192.2h54.8c32.1,0,52.8,16.6,52.8,44.6v0.4c0,30.2-23.1,46.1-54.7,46.1h-17.7v36.4h-35.3V192.2z
			 M343.2,255.6c12.4,0,20.2-6.7,20.2-16.8v-0.4c0-10.9-7.8-16.6-20.4-16.6h-16.8v33.7H343.2z"/>
	</g>
</g>
<g id="ISP_x5F_US" class="st0">
	<circle class="st16" cx="256" cy="256" r="256"/>
	<g class="st2">
		<path class="st17" d="M113.4,192.2h35.3v127.5h-35.3V192.2z"/>
		<path class="st17" d="M162.4,300.8l19.7-23.5c12.8,10,26.6,15.3,41.4,15.3c9.7,0,14.8-3.3,14.8-8.7v-0.4c0-5.5-4.2-8.2-21.7-12.4
			c-27.1-6.2-48.1-13.8-48.1-39.9v-0.4c0-23.7,18.8-40.8,49.4-40.8c21.7,0,38.6,5.8,52.5,16.9l-17.7,25
			c-11.7-8.4-24.4-12.6-35.7-12.6c-8.6,0-12.8,3.5-12.8,8.2v0.4c0,5.8,4.4,8.4,22.2,12.4c29.2,6.4,47.4,15.9,47.4,39.7v0.4
			c0,26.1-20.6,41.5-51.6,41.5C199.6,322,178.3,314.9,162.4,300.8z"/>
		<path class="st17" d="M290.9,192.2h54.8c32.1,0,52.8,16.6,52.8,44.6v0.4c0,30.2-23.1,46.1-54.7,46.1h-17.7v36.4h-35.3V192.2z
			 M343.2,255.6c12.4,0,20.2-6.7,20.2-16.8v-0.4c0-10.9-7.8-16.6-20.4-16.6h-16.8v33.7H343.2z"/>
	</g>
</g>
<g id="Device_x5F_S" class="st0">
	<circle class="st15" cx="256" cy="256" r="256"/>
	<g class="st2">
		<path class="st3" d="M327.7,85H184.3c-10.9,0-19.8,8.8-19.8,19.8v302.5c0,10.9,8.8,19.8,19.8,19.8h143.4
			c10.9,0,19.8-8.8,19.8-19.8V104.8C347.5,93.8,338.6,85,327.7,85z M235.2,97.1c0.5-0.5,1.2-0.8,2-0.8h37.5c1.6,0,2.8,1.3,2.8,2.8
			c0,0.8-0.3,1.5-0.8,2c-0.5,0.5-1.2,0.8-2,0.8h-37.5c-1.6,0-2.8-1.3-2.8-2.8C234.4,98.3,234.7,97.6,235.2,97.1z M256,417.1
			c-5.1,0-9.1-4.1-9.1-9.1c0-5.1,4.1-9.1,9.1-9.1c5.1,0,9.1,4.1,9.1,9.1C265.1,413.1,261.1,417.1,256,417.1z M331,391.8H181V113.1
			h150V391.8z"/>
	</g>
</g>
<g id="Device_x5F_US" class="st0">
	<circle class="st16" cx="256" cy="256" r="256"/>
	<g class="st2">
		<path class="st17" d="M327.7,85H184.3c-10.9,0-19.8,8.8-19.8,19.8v302.5c0,10.9,8.8,19.8,19.8,19.8h143.4
			c10.9,0,19.8-8.8,19.8-19.8V104.8C347.5,93.8,338.6,85,327.7,85z M235.2,97.1c0.5-0.5,1.2-0.8,2-0.8h37.5c1.6,0,2.8,1.3,2.8,2.8
			c0,0.8-0.3,1.5-0.8,2c-0.5,0.5-1.2,0.8-2,0.8h-37.5c-1.6,0-2.8-1.3-2.8-2.8C234.4,98.3,234.7,97.6,235.2,97.1z M256,417.1
			c-5.1,0-9.1-4.1-9.1-9.1c0-5.1,4.1-9.1,9.1-9.1c5.1,0,9.1,4.1,9.1,9.1C265.1,413.1,261.1,417.1,256,417.1z M331,391.8H181V113.1
			h150V391.8z"/>
	</g>
</g>
<g id="Time_x5F_S" class="st0">
	<circle class="st15" cx="256" cy="256" r="256"/>
	<g class="st2">
		<path class="st3" d="M327.7,85H184.3c-10.9,0-19.8,8.8-19.8,19.8v302.5c0,10.9,8.8,19.8,19.8,19.8h143.4
			c10.9,0,19.8-8.8,19.8-19.8V104.8C347.5,93.8,338.6,85,327.7,85z M235.2,97.1c0.5-0.5,1.2-0.8,2-0.8h37.5c1.6,0,2.8,1.3,2.8,2.8
			c0,0.8-0.3,1.5-0.8,2c-0.5,0.5-1.2,0.8-2,0.8h-37.5c-1.6,0-2.8-1.3-2.8-2.8C234.4,98.3,234.7,97.6,235.2,97.1z M256,417.1
			c-5.1,0-9.1-4.1-9.1-9.1c0-5.1,4.1-9.1,9.1-9.1c5.1,0,9.1,4.1,9.1,9.1C265.1,413.1,261.1,417.1,256,417.1z M331,391.8H181V113.1
			h150V391.8z"/>
	</g>
</g>
<g id="Time_x5F_US" class="st0">
	<circle class="st16" cx="256" cy="256" r="256"/>
	<g class="st2">
		<path class="st17" d="M327.7,85H184.3c-10.9,0-19.8,8.8-19.8,19.8v302.5c0,10.9,8.8,19.8,19.8,19.8h143.4
			c10.9,0,19.8-8.8,19.8-19.8V104.8C347.5,93.8,338.6,85,327.7,85z M235.2,97.1c0.5-0.5,1.2-0.8,2-0.8h37.5c1.6,0,2.8,1.3,2.8,2.8
			c0,0.8-0.3,1.5-0.8,2c-0.5,0.5-1.2,0.8-2,0.8h-37.5c-1.6,0-2.8-1.3-2.8-2.8C234.4,98.3,234.7,97.6,235.2,97.1z M256,417.1
			c-5.1,0-9.1-4.1-9.1-9.1c0-5.1,4.1-9.1,9.1-9.1c5.1,0,9.1,4.1,9.1,9.1C265.1,413.1,261.1,417.1,256,417.1z M331,391.8H181V113.1
			h150V391.8z"/>
	</g>
</g>
<g id="Layer_12" class="st0">
	<g class="st2">
		<path d="M549.6,158.2c19.3,0,35,15.7,35,35s-15.7,35-35,35s-35-15.7-35-35S530.3,158.2,549.6,158.2 M549.6,149.2
			c-24.3,0-44,19.7-44,44s19.7,44,44,44s44-19.7,44-44S573.9,149.2,549.6,149.2L549.6,149.2z"/>
	</g>
	<polyline class="st18" points="549.5,166.5 549.5,193.5 566.5,206.5 	"/>
	<g class="st2">
		<path d="M866.5,286.7c-1.1-3.5-2.9-6.7-5.3-9.6c-2.4-2.9-5.7-5.5-9.8-7.9c-4.1-2.3-9.1-4.5-15-6.4l-15.7-5.1c-2.9-0.9-5-2-6.4-3.2
			c-1.3-1.2-2-3-2-5.3c0-2.3,1-4.2,2.9-5.7c1.9-1.5,4.8-2.3,8.6-2.3c4.8,0,8.6,0.8,11.5,2.3c2.9,1.5,5.6,3.6,8,6.1l18.1-18.6
			c-1.7-2-3.8-4-6.2-5.8c-2.4-1.8-5.1-3.4-8.3-4.9c-3.1-1.4-6.8-2.6-10.9-3.4c-4.1-0.8-8.8-1.3-14-1.3c-5.2,0-10.3,0.7-15.2,2.2
			c-4.9,1.5-9.2,3.7-13,6.6c-3.8,2.9-6.8,6.5-9,10.9c-2.2,4.3-3.3,9.3-3.3,15c0,4.8,0.7,9,2.2,12.7c1.5,3.7,3.5,7,6.1,9.8
			c2.6,2.9,5.7,5.3,9.3,7.4c3.6,2,7.5,3.8,11.8,5.1l14,4.6c4,1.3,6.9,2.6,8.8,4c1.9,1.4,2.9,3.4,2.9,5.9c0,3.3-1.3,5.7-3.9,7.1
			c-2.6,1.4-6.3,2.1-11.1,2.1c-0.3,0-0.5,0-0.8,0v25.8c0.7,0,1.5,0,2.2,0c7.8,0,14.5-0.9,20.2-2.7c5.7-1.8,10.4-4.4,14-7.6
			c3.7-3.2,6.4-7.1,8.1-11.6c1.8-4.5,2.6-9.4,2.6-14.8C868.2,294,867.6,290.2,866.5,286.7z"/>
	</g>
	<rect x="784" y="309" class="st2" width="23" height="25.7"/>
	<rect x="813" y="309" class="st2" width="3" height="25.7"/>
	<polygon class="st2" points="784,341.2 764.9,322.1 784,303 	"/>
	<g class="st2">
		<path d="M906,325v61h46v-61H906z M945.4,329l0.9-0.9l0.7,0.6l0.7-0.7l0.9,0.9l-0.7,0.7l0.6,0.6l-0.9,0.9l-0.7-0.6l-0.7,0.7
			l-0.9-0.9l0.7-0.7L945.4,329z M949,383h-40v-48h40V383z"/>
	</g>
	<rect x="913" y="350" class="st2" width="33" height="17"/>
	<rect x="913" y="340" class="st2" width="33" height="6"/>
	<path class="st2" d="M937.2,375h-16.4c-1.4,0-2.5-1.1-2.5-2.5l0,0c0-1.4,1.1-2.5,2.5-2.5h16.4c1.4,0,2.5,1.1,2.5,2.5l0,0
		C939.7,373.9,938.6,375,937.2,375z"/>
</g>
<g id="Guides" class="st0">
</g>
</svg>
