<?xml version="1.0" encoding="utf-8"?>
<!-- Generator: Adobe Illustrator 21.1.0, SVG Export Plug-In . SVG Version: 6.00 Build 0)  -->
<svg version="1.1" id="Layer_1" xmlns="http://www.w3.org/2000/svg" xmlns:xlink="http://www.w3.org/1999/xlink" x="0px" y="0px"
	 viewBox="0 0 512 512" style="enable-background:new 0 0 512 512;" xml:space="preserve">
<style type="text/css">
	.st0{fill:#EA4535;}
	.st1{fill:#333333;}
	.st2{fill:#FFFFFF;}
</style>
<circle class="st0" cx="256" cy="256" r="256"/>
<circle class="st1" cx="256" cy="256" r="256"/>
<g id="Guides">
</g>
<g>
	<path class="st2" d="M152.3,194.1l19.6,183.4c1.2,9.2,9,16.1,18.3,16.1h131.4c9.3,0,17.2-6.9,18.3-16.1l19.6-183.4H152.3z"/>
	<g>
		<path class="st2" d="M377.8,155.3c-4.7-4.7-11.2-7.6-18.3-7.6h-207c-7.1,0-13.6,2.9-18.3,7.6s-7.6,11.2-7.6,23.3h258.9
			C385.4,166.5,382.5,160,377.8,155.3z"/>
		<path class="st2" d="M322.1,148.9V142c0-13-10.6-23.6-23.6-23.6h-71.1c-13,0-23.6,10.6-23.6,23.6v6.9 M310.6,148.9h-95.4V142
			c0-6.7,5.4-12.1,12.1-12.1h71.1c6.7,0,12.1,5.4,12.1,12.1V148.9z"/>
	</g>
</g>
</svg>
