<?xml version="1.0" encoding="utf-8"?>
<!-- Generator: Adobe Illustrator 21.0.2, SVG Export Plug-In . SVG Version: 6.00 Build 0)  -->
<svg version="1.1" id="Layer_1" xmlns="http://www.w3.org/2000/svg" xmlns:xlink="http://www.w3.org/1999/xlink" x="0px" y="0px"
	 viewBox="0 0 512 512" style="enable-background:new 0 0 512 512;" xml:space="preserve">
<style type="text/css">
	.st0{display:none;}
	.st1{display:inline;fill:#FFA600;}
	.st2{display:inline;}
	.st3{fill:#FFFFFF;}
	.st4{fill:#FF7F00;}
</style>
<g id="Layer_3" class="st0">
	<polygon class="st1" points="256,37.6 0.5,480.2 511.5,480.2 	"/>
	<g class="st2">
		<path class="st3" d="M256,104.9l198.6,344H57.4L256,104.9 M256,72.9l-226.3,392h452.6L256,72.9L256,72.9z"/>
	</g>
</g>
<g id="Layer_2">
	<path class="st4" d="M192.9,61.1l-183,317c-28.1,48.6,7,109.4,63.1,109.4h366c56.1,0,91.2-60.8,63.1-109.4l-183-316.9
		C291.1,12.5,220.9,12.5,192.9,61.1z"/>
</g>
<path class="st3" d="M256,422.2c-7.7,0-14.5-2.6-20.3-7.8c-5.8-5.2-8.7-12.1-8.7-20.5c0-8.5,2.9-15.3,8.7-20.5s12.5-7.8,20.3-7.8
	c3.7,0,7.3,0.7,10.8,2c3.6,1.4,6.7,3.3,9.3,5.8c2.6,2.5,4.7,5.5,6.4,9c1.6,3.5,2.5,7.3,2.5,11.6c0,4.2-0.8,8.1-2.5,11.6
	c-1.6,3.5-3.8,6.5-6.4,9s-5.7,4.4-9.3,5.8C263.3,421.5,259.7,422.2,256,422.2z"/>
<polygon class="st3" points="228.8,170.2 283.2,170.2 277.4,328.8 234.6,328.8 "/>
</svg>
